<svg preserveAspectRatio="xMidYMid meet" width="100%" height="100%" overflow="visible" style="display: block;" viewBox="0 0 713.465 120" fill="none" xmlns="http://www.w3.org/2000/svg">
<g id="AO_Black">
<g id="Vector">
<path fill-rule="evenodd" clip-rule="evenodd" d="M60 0C93.1366 0.000160597 119.999 26.8581 119.999 59.9888C119.999 93.1195 93.1365 119.977 60 119.977C57.2378 119.977 54.5188 119.79 51.8558 119.428L50.9144 119.301V98.9778L52.2128 99.2339C54.7313 99.7305 57.3351 99.9915 60 99.9915C82.0973 99.9913 100.01 82.0814 100.011 59.9888C100.011 37.8962 82.0974 19.9863 60 19.9862C37.9624 19.9862 20.0861 37.7991 19.9894 59.8093V62.9614C19.9894 74.3405 19.9889 88.4142 19.9888 99.643V120H0V59.9888C0 26.8579 26.8633 0 60 0Z" fill="var(--fill-0, black)"/>
<path fill-rule="evenodd" clip-rule="evenodd" d="M60 25.4521C79.0668 25.4523 94.5418 40.8929 94.542 59.9623C94.542 79.0318 79.067 94.4728 60 94.473C57.1551 94.473 54.3894 94.1285 51.7432 93.48L50.9144 93.2765V71.4685L52.5587 72.4471C54.7347 73.7419 57.2783 74.4873 60 74.4873C68.0476 74.4871 74.5532 67.9738 74.5532 59.9623C74.553 51.951 68.0475 45.4385 60 45.4383C52.0063 45.4383 45.5334 51.8639 45.4468 59.8013L45.4463 119.977H25.4569V59.9623C25.4571 40.8928 40.933 25.4521 60 25.4521Z" fill="var(--fill-0, black)"/>
<path fill-rule="evenodd" clip-rule="evenodd" d="M690.023 41.6948C696.444 41.6949 701.826 43.3296 705.786 46.3204C709.585 49.19 712.041 53.2856 712.847 58.2918L713.054 59.5759H698.407L698.181 58.7648C697.289 55.5563 694.099 53.5479 689.468 53.5477C687.015 53.5477 685.36 53.8008 684.054 54.3681C682.699 54.9568 681.994 55.681 681.897 56.617C681.911 57.416 682.286 58.0521 683.031 58.6116C683.812 59.1984 684.967 59.6728 686.429 60.0959C687.883 60.5169 689.588 60.8723 691.441 61.2469C693.286 61.62 695.272 62.0114 697.259 62.5007C701.224 63.4772 705.27 64.8622 708.329 67.3584C711.416 69.879 713.464 73.5063 713.465 78.8607C713.464 83.7365 710.815 87.9205 706.751 90.9187L706.354 91.2055C702.067 94.2193 696.279 95.9868 690.215 95.9869C682.702 95.9869 676.874 94.0442 672.838 90.7071C668.948 87.491 666.768 83.0159 666.33 77.865L666.229 76.6632H680.864L681.033 77.5674C681.712 81.1982 685.569 83.4192 690.215 83.4192C692.629 83.4191 694.738 82.9923 696.221 82.2503C697.711 81.5051 698.466 80.5063 698.466 79.3731C698.466 78.4695 698.076 77.7515 697.323 77.1264C696.549 76.4845 695.407 75.9568 693.963 75.4867C692.527 75.0189 690.84 74.6228 689.009 74.2189C687.186 73.8168 685.219 73.4065 683.255 72.9148C679.336 71.933 675.333 70.6037 672.307 68.2589C669.249 65.8889 667.209 62.4967 667.209 57.4861C667.209 53.0338 669.542 49.0674 673.552 46.2344C677.541 43.4166 682.167 41.6948 690.023 41.6948Z" fill="var(--fill-0, black)"/>
<path fill-rule="evenodd" clip-rule="evenodd" d="M659.746 95.159H643.419L642.868 95.1649L642.863 94.607L642.862 90.877C639.785 93.6481 634.488 95.9684 627.92 95.9685C622.141 95.9685 617.185 94.0858 613.67 90.6454C610.326 87.3707 608.33 82.725 608.143 77.0625L608.115 77.056V42.526H624.348V72.5311C624.348 72.732 624.352 72.9298 624.36 73.1247H624.362C624.39 73.8092 624.466 74.4563 624.587 75.0641H624.586C624.59 75.0837 624.594 75.1031 624.598 75.1226H624.6C624.612 75.182 624.625 75.2409 624.638 75.299H624.636C624.639 75.3109 624.641 75.3228 624.644 75.3347H624.646C624.661 75.4016 624.675 75.4631 624.69 75.523H624.688C624.694 75.5465 624.7 75.5699 624.706 75.5933H624.707C624.72 75.6434 624.732 75.6907 624.745 75.7367H624.743C624.754 75.779 624.766 75.821 624.778 75.8628H624.78C624.791 75.9039 624.795 75.9191 624.803 75.9472H624.802C624.812 75.9822 624.823 76.017 624.833 76.0517H624.835C624.871 76.1714 624.908 76.2865 624.947 76.398H624.945C624.953 76.4205 624.961 76.4428 624.969 76.4651H624.971C624.989 76.5156 625.003 76.5567 625.019 76.5982H625.017C625.025 76.6207 625.034 76.643 625.042 76.6653H625.044C625.063 76.715 625.082 76.7645 625.102 76.8136L625.1 76.8141C625.104 76.8259 625.11 76.8375 625.114 76.8493L625.116 76.8488C625.139 76.9046 625.158 76.9535 625.179 77.0014H625.178C625.19 77.0315 625.204 77.0613 625.217 77.0912H625.218C625.234 77.1271 625.25 77.1625 625.266 77.1972L625.264 77.1978C625.269 77.2092 625.275 77.2205 625.28 77.2319L625.282 77.2313C625.308 77.2893 625.335 77.3453 625.361 77.3996L625.359 77.4002C625.369 77.4196 625.379 77.4387 625.389 77.4581L625.39 77.4575C625.413 77.5025 625.43 77.5391 625.449 77.5755H625.448C625.462 77.6023 625.476 77.6291 625.49 77.6556L625.491 77.655C625.512 77.6929 625.531 77.7291 625.55 77.7644L625.549 77.7649C625.562 77.7888 625.575 77.8126 625.589 77.8363L625.59 77.8358C625.61 77.8705 625.63 77.9059 625.652 77.9424L625.65 77.9429C625.659 77.9581 625.668 77.9733 625.677 77.9884L625.678 77.9878C625.703 78.029 625.727 78.0698 625.752 78.1101L625.751 78.1107C625.764 78.1326 625.778 78.1544 625.792 78.1761L625.793 78.1756C625.827 78.2283 625.858 78.2779 625.89 78.3255C625.922 78.3746 625.955 78.4224 625.988 78.4694L625.987 78.47C625.995 78.4808 626.002 78.4917 626.01 78.5025L626.011 78.5019C626.04 78.5422 626.069 78.5828 626.1 78.6242L626.098 78.6247C626.109 78.6399 626.12 78.6551 626.132 78.6702L626.133 78.6697C626.162 78.7086 626.191 78.7471 626.221 78.7849L626.22 78.7855C626.238 78.8082 626.255 78.8306 626.273 78.8531L626.274 78.8526C626.297 78.8807 626.318 78.9064 626.338 78.931L626.337 78.9316C626.358 78.9573 626.379 78.983 626.401 79.0084L626.402 79.0079C626.426 79.0356 626.448 79.0622 626.471 79.088L626.469 79.0885C626.491 79.1132 626.512 79.1377 626.534 79.1621L626.536 79.1615C626.556 79.1846 626.578 79.208 626.599 79.2314L626.598 79.2324C626.609 79.245 626.621 79.2579 626.632 79.2703C626.641 79.2797 626.65 79.2886 626.659 79.2979L626.66 79.2974C626.685 79.3247 626.712 79.3524 626.739 79.3807L626.738 79.3812C626.757 79.4002 626.775 79.4188 626.794 79.4375L626.795 79.437C626.821 79.4629 626.848 79.4894 626.877 79.5176L626.875 79.5187C626.891 79.5346 626.908 79.5505 626.924 79.5663L626.926 79.5652C626.959 79.5971 626.992 79.6284 627.026 79.6588L627.024 79.6594C627.043 79.6764 627.062 79.6934 627.08 79.7103L627.081 79.7097C627.11 79.7354 627.139 79.7612 627.169 79.7871L627.168 79.7882C627.19 79.8076 627.212 79.8269 627.235 79.8461L627.237 79.845C627.263 79.8673 627.29 79.8897 627.317 79.9121L627.316 79.9132C627.334 79.9283 627.352 79.9437 627.371 79.9586L627.372 79.9576C627.409 79.9872 627.443 80.014 627.476 80.0398L627.475 80.0409C627.498 80.0592 627.522 80.0775 627.546 80.0955L627.547 80.0945C627.566 80.1094 627.581 80.12 627.611 80.1415L627.609 80.1426C627.64 80.1658 627.672 80.1886 627.704 80.2113L627.705 80.2108C627.733 80.231 627.762 80.2512 627.794 80.273L627.793 80.2741C627.811 80.2869 627.83 80.2999 627.849 80.3125L627.85 80.3114C627.881 80.3325 627.913 80.3536 627.946 80.3753L627.945 80.3764C627.97 80.3926 627.995 80.4091 628.02 80.4251L628.021 80.424C628.049 80.4422 628.079 80.4603 628.108 80.4787L628.107 80.4797C628.138 80.4989 628.17 80.5178 628.201 80.5366L628.202 80.5355C628.226 80.5498 628.251 80.5644 628.278 80.5798L628.277 80.5809C628.307 80.5983 628.336 80.6159 628.366 80.6329L628.368 80.6318C628.394 80.6467 628.422 80.6614 628.452 80.6778L628.451 80.6789C628.481 80.6952 628.511 80.7116 628.541 80.7276L628.542 80.7265C628.567 80.7397 628.593 80.7526 628.623 80.7682L628.622 80.7692C628.659 80.7881 628.696 80.8067 628.733 80.825L628.734 80.8239C628.756 80.8344 628.777 80.8449 628.799 80.8553L628.798 80.8564C628.833 80.8733 628.869 80.8902 628.904 80.9067L628.905 80.9056C628.934 80.9186 628.963 80.9312 628.995 80.9456L628.994 80.9467C629.026 80.9609 629.058 80.9752 629.09 80.9889L629.091 80.9879C629.121 81.0007 629.14 81.0081 629.185 81.0268L629.184 81.0284C629.218 81.0422 629.251 81.0562 629.285 81.0696L629.286 81.0679C629.311 81.0778 629.335 81.0876 629.358 81.0966L629.358 81.0972C629.396 81.1119 629.434 81.1268 629.473 81.141L629.474 81.1399C629.507 81.1521 629.538 81.163 629.581 81.1783L629.581 81.1794C629.608 81.1889 629.634 81.1989 629.661 81.2081L629.663 81.2065C629.701 81.2196 629.741 81.232 629.788 81.2471L629.786 81.2492C629.811 81.2571 629.835 81.2654 629.86 81.273L629.861 81.2714C629.894 81.2818 629.924 81.2902 629.968 81.3033L629.967 81.305C630.003 81.3156 630.039 81.3267 630.075 81.3369L630.076 81.3347C630.094 81.3399 630.111 81.3449 630.127 81.3493L630.126 81.3504C630.313 81.402 630.504 81.4479 630.699 81.4879L630.699 81.4862C630.724 81.4914 630.749 81.4964 630.78 81.5025L630.779 81.5036C630.897 81.5266 631.017 81.5481 631.138 81.5669L631.138 81.5652C631.272 81.586 631.407 81.6045 631.543 81.6199L631.543 81.621C631.552 81.622 631.561 81.6232 631.57 81.6242L631.571 81.6226C631.692 81.6359 631.816 81.6467 631.944 81.6562L631.943 81.6583C631.997 81.6623 632.051 81.666 632.106 81.6691L632.106 81.667C632.216 81.6733 632.328 81.6779 632.442 81.681L632.441 81.6832C632.543 81.686 632.646 81.6881 632.75 81.6881C632.919 81.6881 633.086 81.6833 633.251 81.6762V81.6746C633.316 81.6718 633.328 81.672 633.371 81.6697V81.6713C633.454 81.6668 633.537 81.6608 633.619 81.6545V81.6524C633.659 81.6493 633.643 81.6512 633.669 81.6491V81.6507C633.853 81.6358 634.035 81.6158 634.214 81.5918V81.5901C634.228 81.5883 634.241 81.5867 634.248 81.5858C634.257 81.5848 634.261 81.5845 634.263 81.5842V81.5858C634.319 81.578 634.375 81.5686 634.431 81.5598V81.5582C634.486 81.5496 634.519 81.5451 634.559 81.5382V81.5398C634.607 81.5316 634.655 81.5222 634.703 81.5133V81.5117C634.768 81.4997 634.796 81.4952 634.841 81.4862V81.4879C634.895 81.477 634.948 81.4649 635.002 81.4532V81.4516C635.053 81.4405 635.085 81.434 635.124 81.4251V81.4267C635.171 81.4158 635.217 81.4037 635.264 81.3921L635.264 81.3899C635.32 81.3758 635.357 81.3676 635.399 81.3564V81.358C635.442 81.3465 635.485 81.3338 635.528 81.3217V81.3207C635.583 81.3052 635.629 81.2922 635.675 81.2784L635.675 81.2801C635.716 81.2679 635.756 81.2549 635.797 81.2422L635.796 81.24C635.851 81.2229 635.894 81.2093 635.938 81.1946L635.939 81.1967C636.002 81.1756 636.065 81.1531 636.127 81.1307V81.1296C636.152 81.121 636.17 81.114 636.19 81.1069L636.19 81.1085C636.255 81.0847 636.319 81.0597 636.383 81.0344L636.383 81.0328C636.419 81.0186 636.424 81.017 636.447 81.0079L636.447 81.0095C636.506 80.9858 636.564 80.9608 636.621 80.9359V80.9348C636.665 80.916 636.677 80.9111 636.706 80.8986V80.8997C636.757 80.8768 636.809 80.8531 636.86 80.8293L636.859 80.8282C636.893 80.8123 636.927 80.7961 636.96 80.7801L636.961 80.7817C637.01 80.7579 637.059 80.7333 637.107 80.7086L637.107 80.7076C637.138 80.6915 637.166 80.6774 637.193 80.6632L637.194 80.6648C637.258 80.6315 637.321 80.5969 637.384 80.562L637.383 80.5609C637.419 80.5409 637.404 80.5496 637.425 80.5376L637.426 80.5387C637.482 80.5068 637.538 80.474 637.594 80.4408L637.594 80.4397C637.626 80.4204 637.651 80.4059 637.676 80.3905L637.677 80.3915C637.72 80.365 637.763 80.3382 637.807 80.3109L637.806 80.3093C637.843 80.2857 637.875 80.2654 637.906 80.2449L637.907 80.2465C637.955 80.2151 638.003 80.1826 638.05 80.1502L638.049 80.1491C638.076 80.1312 638.102 80.1127 638.129 80.0939L638.13 80.0955C638.176 80.0631 638.222 80.0299 638.268 79.9965L638.267 79.9949C638.301 79.9697 638.328 79.9504 638.355 79.93L638.356 79.9316C638.4 79.8985 638.444 79.8649 638.488 79.8309L638.486 79.8293C638.527 79.7975 638.548 79.7818 638.577 79.759L638.578 79.76C638.619 79.7271 638.659 79.6937 638.7 79.6599L638.699 79.6583C638.735 79.628 638.76 79.6078 638.788 79.5842L638.789 79.5853C638.834 79.5467 638.879 79.5074 638.923 79.4678L638.922 79.4662C638.945 79.4464 638.966 79.428 638.987 79.4094L638.987 79.4105C639.032 79.3697 639.077 79.3283 639.121 79.2865L639.12 79.2855C639.15 79.2568 639.177 79.231 639.204 79.2054L639.205 79.2065C639.242 79.1701 639.28 79.1332 639.317 79.0961L639.316 79.0955C639.344 79.0673 639.372 79.039 639.399 79.0111L639.4 79.0122C639.445 78.9657 639.49 78.9186 639.535 78.871L639.534 78.8699C639.553 78.8498 639.564 78.8375 639.591 78.8082L639.592 78.8093C639.633 78.7644 639.674 78.7193 639.715 78.6735L639.713 78.6724C639.74 78.6415 639.762 78.6166 639.785 78.5907L639.786 78.5917C639.827 78.5446 639.867 78.497 639.907 78.4489L639.906 78.4478C639.928 78.4213 639.95 78.3951 639.972 78.3688L639.973 78.3699C640.01 78.3235 640.048 78.2765 640.085 78.2292L640.084 78.2281C640.111 78.1928 640.136 78.1622 640.159 78.1312L640.161 78.1323C640.196 78.0871 640.23 78.0415 640.264 77.9954L640.263 77.9943C640.288 77.9605 640.313 77.9262 640.338 77.8915L640.34 77.8926C640.376 77.8428 640.411 77.7924 640.447 77.7416L640.446 77.7411C640.468 77.7096 640.49 77.6774 640.513 77.6431L640.515 77.6442C640.531 77.621 640.547 77.5983 640.563 77.575C640.577 77.5538 640.591 77.5319 640.605 77.5106L640.602 77.5095C640.637 77.4568 640.669 77.4085 640.7 77.3601L640.702 77.3612C640.724 77.3276 640.745 77.294 640.766 77.26L640.765 77.2589C640.794 77.2123 640.823 77.1648 640.852 77.1166L640.854 77.1172C640.885 77.0665 640.915 77.0155 640.946 76.964L640.944 76.9635C640.962 76.9329 640.977 76.9071 641 76.8677L641.001 76.8682C641.034 76.811 641.067 76.7533 641.099 76.6951L641.098 76.694C641.116 76.6605 641.134 76.629 641.151 76.5977L641.152 76.5982C641.186 76.5356 641.22 76.4726 641.253 76.4088L641.252 76.4083C641.275 76.3647 641.296 76.3243 641.317 76.2838L641.318 76.2844C641.345 76.2302 641.373 76.1759 641.4 76.1209L641.398 76.1204C641.416 76.0852 641.431 76.0531 641.452 76.01L641.454 76.0111C641.482 75.9524 641.51 75.8932 641.538 75.8336L641.536 75.8331C641.561 75.7802 641.585 75.7272 641.608 75.6745L641.61 75.675C641.63 75.6305 641.65 75.5859 641.67 75.5409L641.669 75.5403C641.699 75.4713 641.729 75.4015 641.759 75.3309L641.761 75.3314C641.777 75.2925 641.793 75.2533 641.809 75.214L641.808 75.2135C641.827 75.1676 641.842 75.1289 641.864 75.0717L641.867 75.0722C641.89 75.0138 641.913 74.9551 641.936 74.8958L641.935 74.8953C641.955 74.8427 641.975 74.7894 641.995 74.7362L641.996 74.7367C642.016 74.6834 642.037 74.63 642.057 74.576L642.055 74.5755C642.074 74.5237 642.092 74.4717 642.112 74.4142H642.113C642.136 74.35 642.158 74.2855 642.18 74.2205H642.179C642.198 74.1665 642.216 74.1115 642.235 74.0544L642.236 74.0549C642.253 74.0046 642.269 73.9542 642.285 73.9034L642.284 73.9029C642.303 73.8432 642.322 73.7824 642.341 73.7205L642.342 73.721C643.044 71.4393 643.418 68.6797 643.419 65.4645V42.5125H659.746V95.159Z" fill="var(--fill-0, black)"/>
<path fill-rule="evenodd" clip-rule="evenodd" d="M500.216 21.5705C521.915 21.5705 537.715 37.364 537.715 58.7369C537.715 80.1126 521.613 95.9022 500.216 95.9022C478.825 95.902 462.42 80.1181 462.42 58.7369C462.42 37.3584 478.524 21.5707 500.216 21.5705ZM500.216 36.4851C488.639 36.4854 479.875 45.9018 479.875 58.7369C479.875 71.5779 488.319 80.9879 500.216 80.9881C511.799 80.9881 520.341 71.5803 520.341 58.7369C520.341 45.8935 511.786 36.4851 500.216 36.4851Z" fill="var(--fill-0, black)"/>
<path fill-rule="evenodd" clip-rule="evenodd" d="M575.433 41.6737C583.125 41.6738 589.606 44.2754 594.163 49.0001C598.718 53.7232 601.303 60.5188 601.303 68.82C601.303 77.1211 598.718 83.9164 594.163 88.6394C589.606 93.364 583.125 95.9657 575.433 95.9658C569.888 95.9657 564.523 93.9567 561.373 90.6779V113.753H545.045L544.935 42.4962H554.172C557.613 42.4964 560.49 44.9413 561.131 48.1824C561.131 48.1824 566.372 41.909 575.433 41.6737ZM573.058 55.5629C569.556 55.563 566.65 56.8851 564.614 59.1647C562.573 61.4495 561.373 64.7356 561.373 68.7118C561.373 72.6882 562.573 76.0027 564.616 78.3152C566.654 80.622 569.56 81.9689 573.058 81.9689C576.561 81.9689 579.495 80.646 581.559 78.352C583.626 76.0534 584.853 72.7404 584.853 68.7118C584.853 64.6833 583.626 61.3988 581.56 59.1279C579.499 56.8611 576.564 55.5629 573.058 55.5629Z" fill="var(--fill-0, black)"/>
<path fill-rule="evenodd" clip-rule="evenodd" d="M248.172 42.2173C250.16 42.2173 252.008 42.4296 253.712 42.8569L254.051 42.9446L254.081 42.9532L254.086 42.9548C255.812 43.4082 257.368 44.0429 258.751 44.864L259.027 45.0317L259.041 45.0404L259.043 45.042C260.1 45.6533 261.016 46.3778 261.789 47.2162C262.373 44.8138 264.527 43.0276 267.101 43.0274H277.603V90.7469C277.603 95.8154 276.547 100.136 274.406 103.68L274.398 103.693L274.392 103.702C272.318 107.233 269.283 109.895 265.307 111.687C261.329 113.481 256.584 114.367 251.092 114.367C246.134 114.367 241.826 113.548 238.184 111.889L238.175 111.885C234.668 110.351 231.874 108.26 229.817 105.602L229.81 105.594L229.626 105.351L229.621 105.345L229.617 105.339C227.76 102.827 226.61 100.122 226.179 97.229L225.993 95.9828H241.714L241.947 96.7561C242.482 98.5331 243.474 99.8416 244.924 100.717C246.569 101.669 248.584 102.16 250.991 102.16C254.104 102.16 256.622 101.316 258.587 99.6641L258.601 99.6528L258.614 99.6414C260.54 98.1281 261.567 95.8684 261.63 92.7707L261.632 92.4682V87.7246C260.955 88.4375 260.126 89.0841 259.152 89.6662L259.125 89.6846L259.101 89.6981C257.644 90.6006 255.956 91.2887 254.045 91.7696L254.046 91.7701C254.044 91.7705 254.043 91.7709 254.041 91.7712L254.027 91.775L254.012 91.7788H254.01C252.16 92.2578 250.179 92.4968 248.071 92.4969C243.43 92.4968 239.279 91.5004 235.634 89.4958L235.627 89.4925L235.62 89.4882C231.975 87.4123 229.121 84.4696 227.062 80.6737C224.999 76.8699 223.976 72.4247 223.976 67.3571C223.976 63.4775 224.549 60.0165 225.706 56.9853L225.707 56.9831L225.722 56.9425L225.723 56.9393C226.888 53.8393 228.539 51.2092 230.677 49.0588L231.094 48.6497C233.201 46.6358 235.641 45.0778 238.41 43.977C241.366 42.8018 244.622 42.2174 248.172 42.2173ZM250.79 55.9441C248.736 55.9441 246.886 56.4264 245.231 57.3835L245.226 57.3868L245.221 57.3895L244.894 57.574C243.391 58.4592 242.19 59.7095 241.291 61.3381C240.4 63.0707 239.948 65.0731 239.948 67.3571C239.948 69.6405 240.4 71.6421 241.29 73.3744C242.25 75.0447 243.558 76.3942 245.221 77.4259C246.879 78.387 248.731 78.8712 250.79 78.8712C252.399 78.8711 253.83 78.5804 255.092 78.0108L255.5 77.8263C256.684 77.2672 257.705 76.554 258.566 75.6878C259.427 74.8223 260.106 73.818 260.605 72.6726L260.601 72.6693L260.873 71.9967C261.444 70.5865 261.733 69.0414 261.733 67.3571C261.733 65.0731 261.246 63.0707 260.289 61.3376C259.389 59.7088 258.188 58.4592 256.685 57.574L256.346 57.3824L256.333 57.3749C254.753 56.4269 252.912 55.9442 250.79 55.9441ZM266.876 44.1188C266.856 44.1198 266.836 44.1218 266.817 44.1231C266.854 44.1206 266.892 44.1187 266.93 44.1172L266.876 44.1188Z" fill="var(--fill-0, black)"/>
<path fill-rule="evenodd" clip-rule="evenodd" d="M422.56 43.0274H434.14V56.2482H422.56V75.2549C422.56 77.5382 423.113 79.1741 424.127 80.2549L424.323 80.4524C425.326 81.4088 426.69 81.9086 428.47 81.9086C429.379 81.9086 430.253 81.8433 431.092 81.7143C431.719 81.5787 432.299 81.4275 432.831 81.2619L434.241 80.8236V94.3529L433.569 94.6305C432.707 94.9867 431.644 95.2823 430.39 95.5229L430.391 95.5234L430.383 95.525L430.382 95.5245C429.003 95.8016 427.525 95.9395 425.953 95.9395C422.058 95.9395 418.646 95.1826 415.736 93.65C412.823 92.1153 410.565 89.8786 408.971 86.9525C407.377 84.0253 406.59 80.5922 406.59 76.6726V56.2482H398.737V43.0274H406.59V30.8774H422.56V43.0274Z" fill="var(--fill-0, black)"/>
<path fill-rule="evenodd" clip-rule="evenodd" d="M310.659 42.2173C314.751 42.2173 318.443 42.9116 321.723 44.3115L322.039 44.4495L322.043 44.4516L322.047 44.4532L322.35 44.5912L322.677 44.7352C326.027 46.2446 328.808 48.3728 331.008 51.1205C333.137 53.7153 334.658 56.7049 335.574 60.0811L335.66 60.4095L335.663 60.4171L335.744 60.7412L335.828 61.0713C336.678 64.4938 336.841 68.1762 336.326 72.1109L336.202 73.0557H300.223C300.47 74.1505 300.837 74.8832 301.38 75.9756C302.414 78.055 303.789 79.5913 305.499 80.6115C307.222 81.572 309.175 82.0579 311.371 82.0579C313.07 82.0579 314.515 81.8273 315.717 81.3821C317.002 80.8633 318.006 80.2259 318.745 79.4822C319.452 78.7711 319.902 78.0325 320.124 77.2717L320.352 76.4892H336.318L336.009 77.8214C335.226 81.1862 333.87 84.1693 331.937 86.7609L331.933 86.7663L331.929 86.7712C329.856 89.4796 327.097 91.5899 323.67 93.1062C320.23 94.6285 316.124 95.3789 311.371 95.3789C305.795 95.3789 300.968 94.2503 296.913 91.9693L296.903 91.9639L296.893 91.9579C292.921 89.6138 289.835 86.4049 287.643 82.3404C285.459 78.2901 284.349 74.208 284.349 68.9772C284.349 65.0699 284.998 61.4905 286.301 58.2472C287.52 55.216 289.192 52.5414 291.318 50.2293L291.322 50.2244L291.327 50.2195L291.739 49.7823L291.749 49.7715L291.76 49.7606C294.157 47.3521 296.932 45.492 300.08 44.1838L300.083 44.1821L300.088 44.1805C303.312 42.8696 306.839 42.2173 310.659 42.2173ZM310.659 54.4252C308.915 54.4252 307.347 54.75 305.948 55.3895L305.937 55.3943L305.927 55.3987C304.606 55.9702 303.506 56.8238 302.624 57.9642C301.906 58.8936 301.304 60.0218 300.824 61.3549H319.749C319.612 60.0775 319.191 58.9876 318.496 58.0702L318.476 58.0442L318.457 58.0172C317.71 56.8969 316.683 56.0188 315.362 55.3857C314.037 54.7515 312.474 54.4252 310.659 54.4252Z" fill="var(--fill-0, black)"/>
<path fill-rule="evenodd" clip-rule="evenodd" d="M224.977 95.3692H206.716L201.38 81.0926H175.341L170.004 95.3692H152.246L179.433 23.4217H197.894L224.977 95.3692ZM180.668 66.3527H196.151L188.363 45.2536L180.668 66.3527Z" fill="var(--fill-0, black)"/>
<path fill-rule="evenodd" clip-rule="evenodd" d="M375.095 42.2173C378.809 42.2174 382.099 42.9609 384.946 44.4646L385.221 44.6129L385.225 44.6156L385.229 44.6177L385.483 44.7601L385.487 44.7622L385.491 44.7649C388.269 46.3592 390.431 48.6085 391.972 51.4998L392.126 51.7769C393.689 54.6546 394.458 58.1007 394.458 62.0919V95.1295H378.588V65.231C378.588 63.3409 378.231 61.7412 377.541 60.4155C376.846 59.0801 375.906 58.0774 374.725 57.39C373.546 56.7034 372.132 56.349 370.464 56.3489C368.22 56.3489 366.324 56.9594 364.75 58.1611L364.744 58.1649C363.242 59.2985 362.052 61.0534 361.204 63.4793L361.201 63.488C360.355 65.8432 359.924 68.7487 359.924 72.2175V95.1295H343.953V43.0274H353.851L354.163 43.0355C356.95 43.1777 359.238 45.2075 359.794 47.8748C360.532 47.1279 361.436 46.3895 362.499 45.6594L362.519 45.6464C364.114 44.6005 365.976 43.7705 368.099 43.1507C370.235 42.5272 372.568 42.2173 375.095 42.2173Z" fill="var(--fill-0, black)"/>
</g>
</g>
</svg>
