<svg preserveAspectRatio="none" width="100%" height="100%" overflow="visible" style="display: block;" viewBox="0 0 634.149 106.66" fill="none" xmlns="http://www.w3.org/2000/svg">
<g id="Vector">
<path fill-rule="evenodd" clip-rule="evenodd" d="M53.3299 0C82.7827 0.000142743 106.659 23.8723 106.659 53.3199C106.659 82.7675 82.7826 106.639 53.3299 106.639C50.8748 106.639 48.458 106.473 46.091 106.152L45.2543 106.038V87.9745L46.4084 88.2021C48.6469 88.6435 50.9612 88.8755 53.3299 88.8755C72.9706 88.8754 88.8924 72.9565 88.8925 53.3199C88.8925 33.6833 72.9707 17.7645 53.3299 17.7643C33.7422 17.7643 17.8531 33.597 17.7672 53.1603V55.9621C17.7672 66.0761 17.7668 78.5853 17.7667 88.5657V106.66H0V53.3199C0 23.8722 23.8769 0 53.3299 0Z" fill="var(--fill-0, black)"/>
<path fill-rule="evenodd" clip-rule="evenodd" d="M53.3299 22.6226C70.277 22.6228 84.0317 36.3469 84.0319 53.2963C84.0319 70.2459 70.2772 83.9703 53.3299 83.9705C50.8012 83.9705 48.3429 83.6643 45.9909 83.0879L45.2543 82.907V63.5234L46.7158 64.3932C48.6499 65.5441 50.9107 66.2066 53.3299 66.2066C60.4828 66.2065 66.2652 60.4172 66.2652 53.2963C66.265 46.1756 60.4827 40.3871 53.3299 40.387C46.2248 40.387 40.4715 46.0982 40.3945 53.1532L40.3941 106.639H22.6269V53.2963C22.6271 36.3468 36.3825 22.6226 53.3299 22.6226Z" fill="var(--fill-0, black)"/>
<path fill-rule="evenodd" clip-rule="evenodd" d="M613.314 37.0596C619.02 37.0597 623.805 38.5127 627.324 41.171C630.701 43.7216 632.884 47.3619 633.6 51.8116L633.784 52.9529H620.766L620.565 52.2319C619.772 49.3802 616.936 47.595 612.82 47.5949C610.64 47.5949 609.169 47.8198 608.008 48.324C606.804 48.8473 606.177 49.491 606.091 50.3229C606.104 51.0331 606.437 51.5985 607.099 52.0958C607.793 52.6174 608.819 53.039 610.119 53.4151C611.412 53.7892 612.927 54.1052 614.574 54.4381C616.214 54.7698 617.98 55.1177 619.746 55.5526C623.27 56.4204 626.866 57.6515 629.584 59.8702C632.329 62.1106 634.149 65.3347 634.149 70.0938C634.149 74.4276 631.795 78.1464 628.182 80.8113L627.829 81.0662C624.019 83.745 618.874 85.316 613.484 85.3161C606.806 85.3161 601.626 83.5894 598.039 80.6232C594.582 77.7647 592.644 73.7871 592.255 69.2088L592.165 68.1406H605.173L605.323 68.9443C605.927 72.1715 609.355 74.1455 613.484 74.1455C615.63 74.1454 617.505 73.7661 618.823 73.1066C620.147 72.4443 620.818 71.5564 620.818 70.5493C620.818 69.7461 620.472 69.108 619.802 68.5523C619.114 67.9818 618.099 67.5127 616.816 67.0949C615.539 66.6791 614.04 66.327 612.413 65.968C610.792 65.6106 609.044 65.246 607.298 64.8089C603.814 63.9363 600.257 62.7548 597.567 60.6706C594.849 58.5641 593.036 55.549 593.036 51.0954C593.036 47.1381 595.109 43.6126 598.674 41.0945C602.219 38.59 606.331 37.0596 613.314 37.0596Z" fill="var(--fill-0, black)"/>
<path fill-rule="evenodd" clip-rule="evenodd" d="M586.403 84.5802H571.89L571.401 84.5855L571.396 84.0896L571.396 80.7743C568.661 83.2373 563.953 85.2997 558.115 85.2997C552.978 85.2997 548.573 83.6264 545.449 80.5684C542.476 77.6577 540.702 73.5285 540.537 68.4955L540.511 68.4898V37.7984H554.94V64.4679C554.94 64.6464 554.943 64.8223 554.95 64.9955H554.952C554.977 65.6038 555.044 66.1791 555.152 66.7193H555.151C555.154 66.7367 555.158 66.7539 555.162 66.7712H555.163C555.174 66.8241 555.186 66.8764 555.197 66.928H555.196C555.198 66.9386 555.201 66.9492 555.203 66.9598H555.204C555.218 67.0193 555.23 67.0739 555.243 67.1272H555.242C555.247 67.1481 555.252 67.1689 555.258 67.1897H555.259C555.27 67.2342 555.281 67.2763 555.292 67.3171H555.291C555.301 67.3547 555.312 67.392 555.322 67.4292H555.324C555.334 67.4657 555.337 67.4792 555.344 67.5042H555.343C555.352 67.5353 555.362 67.5662 555.371 67.5971H555.373C555.405 67.7035 555.438 67.8058 555.472 67.9049H555.471C555.478 67.9249 555.485 67.9447 555.492 67.9645H555.493C555.509 68.0094 555.522 68.046 555.536 68.0829H555.534C555.542 68.1028 555.549 68.1226 555.557 68.1425H555.558C555.575 68.1866 555.592 68.2306 555.61 68.2743L555.608 68.2748C555.612 68.2852 555.617 68.2956 555.621 68.306L555.622 68.3055C555.642 68.3552 555.66 68.3987 555.678 68.4412H555.677C555.689 68.468 555.701 68.4945 555.712 68.521H555.713C555.727 68.553 555.741 68.5844 555.756 68.6153L555.754 68.6158C555.759 68.6259 555.763 68.636 555.768 68.6461L555.769 68.6456C555.793 68.6971 555.817 68.7469 555.84 68.7952L555.839 68.7957C555.847 68.8129 555.856 68.8299 555.865 68.8471L555.866 68.8466C555.886 68.8866 555.902 68.9191 555.919 68.9515H555.918C555.93 68.9753 555.942 68.9991 555.955 69.0227L555.956 69.0222C555.974 69.0558 555.991 69.0881 556.009 69.1193L556.007 69.1198C556.019 69.1411 556.031 69.1622 556.043 69.1833L556.044 69.1828C556.062 69.2137 556.08 69.2452 556.098 69.2776L556.097 69.2781C556.105 69.2915 556.113 69.3051 556.121 69.3185L556.122 69.318C556.144 69.3546 556.166 69.3909 556.188 69.4267L556.186 69.4272C556.199 69.4467 556.211 69.466 556.223 69.4854L556.224 69.4849C556.254 69.5317 556.282 69.5758 556.31 69.6181C556.339 69.6618 556.368 69.7043 556.398 69.7461L556.397 69.7465C556.403 69.7562 556.41 69.7658 556.417 69.7754L556.418 69.7749C556.444 69.8107 556.47 69.8468 556.497 69.8836L556.495 69.8841C556.505 69.8976 556.515 69.9111 556.525 69.9245L556.527 69.924C556.552 69.9586 556.578 69.9929 556.604 70.0265L556.603 70.0269C556.619 70.0471 556.635 70.0671 556.651 70.0871L556.652 70.0866C556.672 70.1116 556.69 70.1345 556.708 70.1563L556.707 70.1568C556.726 70.1797 556.745 70.2025 556.764 70.2251L556.766 70.2246C556.786 70.2493 556.807 70.2729 556.827 70.2958L556.825 70.2963C556.844 70.3183 556.864 70.34 556.883 70.3617L556.884 70.3612C556.903 70.3817 556.922 70.4025 556.941 70.4233L556.939 70.4242C556.949 70.4354 556.96 70.4468 556.97 70.4579C556.978 70.4662 556.986 70.4742 556.994 70.4824L556.995 70.4819C557.017 70.5062 557.041 70.5309 557.065 70.556L557.064 70.5565C557.081 70.5733 557.097 70.5899 557.114 70.6065L557.115 70.606C557.138 70.6291 557.162 70.6526 557.187 70.6777L557.186 70.6787C557.2 70.6928 557.215 70.707 557.23 70.721L557.231 70.72C557.261 70.7484 557.29 70.7761 557.32 70.8032L557.319 70.8037C557.335 70.8189 557.352 70.834 557.368 70.8489L557.369 70.8484C557.395 70.8713 557.421 70.8942 557.447 70.9172L557.446 70.9182C557.466 70.9354 557.486 70.9526 557.506 70.9696L557.507 70.9687C557.531 70.9885 557.554 71.0084 557.578 71.0283L557.577 71.0293C557.594 71.0428 557.61 71.0564 557.627 71.0697L557.627 71.0687C557.66 71.0951 557.69 71.1189 557.72 71.1418L557.719 71.1428C557.74 71.1591 557.761 71.1754 557.782 71.1914L557.783 71.1904C557.8 71.2037 557.814 71.2131 557.84 71.2323L557.838 71.2332C557.866 71.2538 557.894 71.2741 557.922 71.2943L557.923 71.2938C557.948 71.3118 557.975 71.3297 558.003 71.3491L558.002 71.3501C558.018 71.3615 558.035 71.373 558.051 71.3842L558.052 71.3833C558.08 71.402 558.108 71.4208 558.138 71.44L558.137 71.441C558.159 71.4555 558.181 71.4701 558.203 71.4843L558.204 71.4833C558.23 71.4995 558.256 71.5156 558.282 71.5319L558.281 71.5329C558.309 71.5499 558.336 71.5667 558.364 71.5834L558.365 71.5824C558.387 71.5952 558.409 71.6081 558.433 71.6218L558.432 71.6228C558.458 71.6382 558.485 71.6539 558.512 71.669L558.512 71.668C558.536 71.6813 558.561 71.6943 558.588 71.7089L558.587 71.7099C558.613 71.7244 558.64 71.739 558.667 71.7532L558.668 71.7522C558.69 71.764 558.713 71.7754 558.74 71.7892L558.739 71.7902C558.772 71.8069 558.805 71.8235 558.838 71.8397L558.839 71.8388C558.858 71.8481 558.877 71.8575 558.896 71.8667L558.895 71.8676C558.926 71.8827 558.958 71.8977 558.99 71.9124L558.991 71.9114C559.016 71.9229 559.041 71.9341 559.07 71.947L559.069 71.9479C559.098 71.9605 559.126 71.9732 559.155 71.9855L559.155 71.9845C559.182 71.996 559.199 72.0025 559.239 72.0191L559.238 72.0206C559.268 72.0328 559.298 72.0452 559.328 72.0571L559.329 72.0557C559.351 72.0645 559.372 72.0731 559.393 72.0812L559.393 72.0817C559.427 72.0948 559.461 72.108 559.495 72.1206L559.496 72.1197C559.525 72.1305 559.552 72.1401 559.591 72.1538L559.591 72.1548C559.615 72.1632 559.638 72.1721 559.662 72.1803L559.663 72.1788C559.698 72.1905 559.733 72.2015 559.775 72.2149L559.774 72.2168C559.795 72.2238 559.817 72.2311 559.839 72.238L559.839 72.2365C559.869 72.2457 559.896 72.2533 559.935 72.2649L559.934 72.2663C559.966 72.2758 559.998 72.2857 560.03 72.2947L560.031 72.2928C560.047 72.2974 560.062 72.3018 560.076 72.3058L560.076 72.3068C560.242 72.3526 560.411 72.3934 560.585 72.4289L560.585 72.4275C560.607 72.432 560.629 72.4365 560.657 72.4419L560.656 72.4429C560.761 72.4634 560.867 72.4824 560.975 72.4991L560.975 72.4977C561.094 72.5162 561.214 72.5326 561.335 72.5463L561.335 72.5472C561.343 72.5481 561.351 72.5492 561.359 72.5501L561.359 72.5487C561.467 72.5605 561.577 72.5701 561.691 72.5785L561.691 72.5804C561.739 72.5839 561.787 72.5872 561.835 72.59L561.836 72.5881C561.933 72.5938 562.032 72.5979 562.134 72.6006L562.133 72.6025C562.224 72.605 562.315 72.6069 562.407 72.6069C562.558 72.6069 562.706 72.6026 562.853 72.5963V72.5949C562.911 72.5924 562.921 72.5926 562.96 72.5905V72.592C563.033 72.588 563.107 72.5826 563.18 72.5771V72.5751C563.216 72.5724 563.202 72.5741 563.225 72.5722V72.5737C563.388 72.5604 563.55 72.5426 563.709 72.5213V72.5198C563.721 72.5182 563.733 72.5167 563.739 72.516C563.747 72.515 563.75 72.5148 563.753 72.5145V72.516C563.803 72.509 563.852 72.5006 563.902 72.4929V72.4914C563.951 72.4838 563.98 72.4798 564.016 72.4736V72.4751C564.059 72.4678 564.101 72.4594 564.144 72.4515V72.4501C564.201 72.4394 564.226 72.4354 564.266 72.4275V72.4289C564.314 72.4193 564.362 72.4085 564.409 72.3981V72.3967C564.454 72.3868 564.484 72.381 564.517 72.3731V72.3746C564.559 72.3648 564.601 72.3541 564.642 72.3438L564.642 72.3419C564.692 72.3293 564.725 72.322 564.762 72.312V72.3135C564.801 72.3033 564.839 72.292 564.877 72.2813V72.2803C564.926 72.2666 564.967 72.255 565.008 72.2428L565.008 72.2442C565.044 72.2334 565.08 72.2218 565.116 72.2106L565.115 72.2086C565.164 72.1934 565.202 72.1814 565.242 72.1682L565.242 72.1702C565.298 72.1514 565.354 72.1314 565.41 72.1115V72.1105C565.431 72.1028 565.448 72.0966 565.465 72.0903L565.465 72.0918C565.523 72.0706 565.58 72.0483 565.637 72.0259L565.637 72.0244C565.668 72.0119 565.673 72.0104 565.693 72.0023L565.694 72.0037C565.746 71.9827 565.797 71.9604 565.849 71.9383V71.9374C565.888 71.9206 565.899 71.9163 565.924 71.9051V71.9061C565.97 71.8858 566.015 71.8647 566.06 71.8436L566.06 71.8426C566.09 71.8285 566.12 71.814 566.15 71.7998L566.15 71.8012C566.194 71.7801 566.237 71.7583 566.281 71.7363L566.28 71.7354C566.308 71.7211 566.333 71.7085 566.357 71.6959L566.358 71.6974C566.414 71.6677 566.47 71.637 566.526 71.606L566.526 71.605C566.558 71.5873 566.544 71.5949 566.563 71.5843L566.563 71.5853C566.614 71.5569 566.664 71.5278 566.714 71.4982L566.713 71.4973C566.742 71.4801 566.764 71.4673 566.786 71.4535L566.787 71.4545C566.825 71.4309 566.864 71.4071 566.902 71.3828L566.902 71.3814C566.935 71.3604 566.963 71.3423 566.991 71.3241L566.992 71.3256C567.034 71.2976 567.076 71.2688 567.119 71.24L567.118 71.239C567.141 71.2231 567.165 71.2066 567.189 71.1899L567.19 71.1914C567.231 71.1625 567.272 71.1331 567.312 71.1034L567.311 71.1019C567.342 71.0795 567.366 71.0624 567.39 71.0442L567.391 71.0456C567.43 71.0162 567.469 70.9864 567.508 70.9562L567.506 70.9547C567.542 70.9265 567.561 70.9125 567.586 70.8922L567.587 70.8932C567.624 70.8639 567.66 70.8342 567.696 70.8042L567.695 70.8027C567.728 70.7759 567.75 70.7578 567.775 70.7369L567.776 70.7378C567.816 70.7036 567.855 70.6686 567.895 70.6334L567.894 70.632C567.914 70.6144 567.933 70.5981 567.951 70.5815L567.952 70.5825C567.991 70.5463 568.031 70.5095 568.07 70.4723L568.069 70.4714C568.096 70.4459 568.12 70.4229 568.144 70.4002L568.145 70.4011C568.178 70.3688 568.211 70.3361 568.244 70.303L568.244 70.3025C568.269 70.2774 568.293 70.2523 568.318 70.2275L568.319 70.2285C568.359 70.1871 568.399 70.1453 568.438 70.1029L568.437 70.102C568.454 70.0841 568.464 70.0732 568.488 70.0471L568.489 70.0481C568.525 70.0082 568.562 69.9681 568.598 69.9274L568.597 69.9264C568.621 69.899 568.641 69.8768 568.661 69.8538L568.661 69.8548C568.698 69.8129 568.734 69.7706 568.769 69.7278L568.768 69.7268C568.788 69.7032 568.807 69.68 568.826 69.6566L568.827 69.6576C568.861 69.6163 568.894 69.5746 568.927 69.5325L568.926 69.5315C568.951 69.5002 568.972 69.473 568.993 69.4454L568.995 69.4464C569.026 69.4062 569.056 69.3656 569.087 69.3247L569.085 69.3238C569.108 69.2937 569.13 69.2632 569.152 69.2324L569.154 69.2333C569.186 69.1891 569.217 69.1443 569.249 69.0991L569.248 69.0987C569.267 69.0707 569.287 69.0421 569.308 69.0116L569.309 69.0126C569.323 68.992 569.338 68.9718 569.352 68.951C569.365 68.9322 569.377 68.9127 569.389 68.8938L569.387 68.8928C569.418 68.846 569.447 68.803 569.474 68.7601L569.476 68.761C569.495 68.7312 569.514 68.7013 569.533 68.6711L569.532 68.6701C569.558 68.6287 569.583 68.5864 569.609 68.5436L569.611 68.5441C569.638 68.4991 569.665 68.4537 569.692 68.408L569.691 68.4075C569.707 68.3803 569.72 68.3574 569.74 68.3224L569.742 68.3229C569.771 68.272 569.8 68.2207 569.829 68.1689L569.827 68.168C569.844 68.1382 569.859 68.1102 569.874 68.0824L569.876 68.0829C569.906 68.0272 569.936 67.9712 569.966 67.9145L569.964 67.914C569.985 67.8753 570.004 67.8394 570.022 67.8034L570.023 67.8039C570.048 67.7558 570.072 67.7074 570.096 67.6586L570.095 67.6582C570.11 67.6269 570.123 67.5983 570.142 67.56L570.144 67.561C570.169 67.5088 570.194 67.4562 570.218 67.4032L570.217 67.4028C570.239 67.3557 570.26 67.3087 570.281 67.2618L570.283 67.2623C570.301 67.2227 570.319 67.183 570.336 67.143L570.335 67.1425C570.362 67.0812 570.389 67.0192 570.415 66.9564L570.417 66.9569C570.431 66.9223 570.445 66.8874 570.46 66.8525L570.459 66.852C570.476 66.8113 570.489 66.7769 570.509 66.726L570.511 66.7265C570.532 66.6745 570.552 66.6224 570.573 66.5697L570.571 66.5692C570.589 66.5225 570.608 66.4751 570.625 66.4278L570.626 66.4283C570.644 66.3809 570.662 66.3334 570.68 66.2855L570.678 66.285C570.695 66.2389 570.711 66.1927 570.729 66.1416H570.73C570.75 66.0846 570.77 66.0272 570.79 65.9695H570.789C570.805 65.9214 570.821 65.8726 570.838 65.8218L570.839 65.8223C570.854 65.7776 570.869 65.7327 570.883 65.6876L570.882 65.6871C570.899 65.6341 570.915 65.5801 570.932 65.525L570.934 65.5255C571.557 63.4974 571.89 61.0447 571.89 58.1868V37.7864H586.403V84.5802Z" fill="var(--fill-0, black)"/>
<path fill-rule="evenodd" clip-rule="evenodd" d="M444.608 19.1725C463.894 19.1725 477.938 33.2103 477.938 52.2072C477.937 71.2065 463.626 85.2408 444.608 85.2408C425.595 85.2406 411.013 71.2115 411.013 52.2072C411.013 33.2053 425.327 19.1727 444.608 19.1725ZM444.608 32.4291C434.318 32.4293 426.527 40.7989 426.527 52.2072C426.527 63.6206 434.033 71.9845 444.608 71.9847C454.903 71.9847 462.495 63.6228 462.495 52.2072C462.495 40.7916 454.891 32.4291 444.608 32.4291Z" fill="var(--fill-0, black)"/>
<path fill-rule="evenodd" clip-rule="evenodd" d="M511.462 37.0409C518.299 37.0409 524.06 39.3534 528.11 43.5528C532.159 47.7508 534.457 53.791 534.457 61.1694C534.457 68.5476 532.159 74.5875 528.11 78.7854C524.06 82.9848 518.299 85.2973 511.462 85.2973C506.534 85.2973 501.766 83.5116 498.965 80.5973V101.107H484.453L484.355 37.772H492.565C495.624 37.7721 498.181 39.9452 498.75 42.826C498.75 42.826 503.408 37.25 511.462 37.0409ZM509.352 49.386C506.239 49.3861 503.656 50.5613 501.846 52.5874C500.032 54.6182 498.965 57.539 498.965 61.0732C498.965 64.6075 500.033 67.5536 501.848 69.609C503.659 71.6593 506.242 72.8565 509.352 72.8565C512.465 72.8565 515.073 71.6806 516.907 69.6417C518.745 67.5986 519.835 64.6539 519.835 61.0732C519.835 57.4925 518.745 54.5731 516.909 52.5547C515.076 50.5399 512.468 49.386 509.352 49.386Z" fill="var(--fill-0, black)"/>
<path fill-rule="evenodd" clip-rule="evenodd" d="M220.583 37.524C222.35 37.5241 223.992 37.7127 225.507 38.0925L225.808 38.1705L225.835 38.1781L225.84 38.1796C227.373 38.5826 228.757 39.1467 229.986 39.8765L230.231 40.0256L230.243 40.0333L230.245 40.0347C231.185 40.578 231.999 41.222 232.686 41.9672C233.205 39.8319 235.12 38.2442 237.408 38.244H246.742V80.6586C246.742 85.1637 245.804 89.0039 243.9 92.1538L243.893 92.1659L243.888 92.1736C242.045 95.3118 239.347 97.6781 235.813 99.2713C232.277 100.865 228.06 101.653 223.178 101.653C218.772 101.653 214.943 100.925 211.705 99.4507L211.698 99.4468C208.58 98.0837 206.097 96.225 204.268 93.8623L204.262 93.8555L204.098 93.6391L204.094 93.6343L204.091 93.629C202.44 91.3957 201.418 88.9913 201.035 86.4202L200.87 85.3125H214.843L215.05 85.9998C215.526 87.5792 216.407 88.7423 217.696 89.52C219.158 90.3667 220.949 90.8027 223.089 90.8028C225.855 90.8027 228.093 90.0525 229.84 88.5845L229.852 88.5744L229.864 88.5643C231.576 87.2193 232.489 85.2108 232.544 82.4574L232.547 82.1886V77.9724C231.945 78.6059 231.208 79.1806 230.343 79.6981L230.318 79.7144L230.297 79.7265C229.002 80.5286 227.502 81.1402 225.803 81.5676L225.804 81.5681C225.802 81.5684 225.801 81.5688 225.8 81.5691L225.787 81.5724L225.774 81.5758H225.772C224.127 82.0016 222.367 82.214 220.493 82.2141C216.368 82.214 212.679 81.3284 209.439 79.5466L209.433 79.5437L209.426 79.5399C206.187 77.6947 203.649 75.0791 201.819 71.7053C199.986 68.3243 199.077 64.3733 199.077 59.869C199.077 56.4208 199.586 53.3445 200.614 50.6502L200.615 50.6483L200.629 50.6122L200.63 50.6094C201.665 47.854 203.132 45.5163 205.033 43.605L205.403 43.2413C207.276 41.4514 209.445 40.0665 211.906 39.0881C214.533 38.0436 217.428 37.5241 220.583 37.524ZM222.91 49.7249C221.084 49.7249 219.44 50.1535 217.969 51.0042L217.965 51.0071L217.96 51.0095L217.669 51.1735C216.334 51.9603 215.266 53.0717 214.467 54.5192C213.675 56.0592 213.273 57.839 213.273 59.869C213.273 61.8986 213.675 63.6777 214.466 65.2175C215.319 66.702 216.482 67.9015 217.96 68.8185C219.433 69.6728 221.08 70.1032 222.91 70.1032C224.34 70.1031 225.612 69.8447 226.733 69.3384L227.096 69.1744C228.148 68.6775 229.056 68.0435 229.822 67.2736C230.586 66.5044 231.19 65.6117 231.633 64.5936L231.63 64.5908L231.872 63.9929C232.379 62.7394 232.636 61.3661 232.636 59.869C232.636 57.839 232.204 56.0592 231.353 54.5187C230.553 53.071 229.485 51.9603 228.15 51.1735L227.848 51.0033L227.837 50.9965C226.433 50.154 224.796 49.725 222.91 49.7249ZM237.207 39.2142C237.19 39.2151 237.172 39.2168 237.155 39.218C237.188 39.2158 237.222 39.2141 237.256 39.2127L237.207 39.2142Z" fill="var(--fill-0, black)"/>
<path fill-rule="evenodd" clip-rule="evenodd" d="M375.585 38.244H385.877V49.9952H375.585V66.8888C375.585 68.9183 376.076 70.3724 376.978 71.333L377.152 71.5086C378.043 72.3587 379.255 72.8028 380.837 72.8029C381.645 72.8028 382.422 72.7448 383.168 72.6302C383.725 72.5096 384.241 72.3752 384.714 72.2281L385.966 71.8385V83.8638L385.37 84.1105C384.603 84.4271 383.659 84.6899 382.544 84.9037L382.545 84.9041L382.538 84.9056L382.537 84.9051C381.311 85.1514 379.997 85.274 378.6 85.274C375.138 85.274 372.105 84.6012 369.519 83.239C366.929 81.8749 364.922 79.8868 363.506 77.286C362.089 74.6843 361.39 71.6328 361.39 68.149V49.9952H354.409V38.244H361.39V27.4448H375.585V38.244Z" fill="var(--fill-0, black)"/>
<path fill-rule="evenodd" clip-rule="evenodd" d="M276.123 37.524C279.761 37.5241 283.042 38.1412 285.957 39.3854L286.238 39.508L286.242 39.51L286.245 39.5114L286.515 39.6341L286.805 39.762C289.783 41.1036 292.254 42.9952 294.21 45.4375C296.102 47.7438 297.455 50.4011 298.268 53.4019L298.345 53.6938L298.347 53.7006L298.419 53.9887L298.494 54.2821C299.25 57.3241 299.395 60.5971 298.937 64.0944L298.827 64.9342H266.848C267.067 65.9072 267.393 66.5584 267.876 67.5295C268.795 69.3777 270.017 70.7432 271.537 71.65C273.068 72.5037 274.804 72.9356 276.756 72.9356C278.266 72.9356 279.551 72.7306 280.619 72.3349C281.762 71.8738 282.653 71.3072 283.311 70.6462C283.939 70.0142 284.339 69.3577 284.536 68.6814L284.739 67.9859H298.93L298.655 69.1701C297.959 72.1608 296.754 74.8123 295.036 77.1158L295.032 77.1206L295.029 77.1249C293.186 79.5322 290.734 81.4079 287.688 82.7556C284.63 84.1087 280.981 84.7757 276.756 84.7757C271.8 84.7757 267.51 83.7726 263.905 81.7451L263.896 81.7403L263.888 81.735C260.357 79.6515 257.615 76.7993 255.666 73.1867C253.725 69.5867 252.739 65.9583 252.739 61.3091C252.739 57.8361 253.315 54.6546 254.473 51.7719C255.556 49.0776 257.043 46.7004 258.933 44.6453L258.936 44.641L258.941 44.6366L259.307 44.248L259.316 44.2384L259.325 44.2288C261.456 42.088 263.922 40.4347 266.72 39.2719L266.723 39.2704L266.727 39.269C269.593 38.1038 272.728 37.524 276.123 37.524ZM276.123 48.3748C274.573 48.3748 273.18 48.6635 271.936 49.2319L271.926 49.2362L271.918 49.24C270.743 49.7481 269.766 50.5067 268.982 51.5203C268.343 52.3464 267.809 53.3492 267.382 54.5341H284.203C284.081 53.3987 283.707 52.43 283.089 51.6146L283.071 51.5915L283.055 51.5675C282.391 50.5717 281.478 49.7912 280.303 49.2285C279.126 48.6648 277.737 48.3748 276.123 48.3748Z" fill="var(--fill-0, black)"/>
<path fill-rule="evenodd" clip-rule="evenodd" d="M199.967 84.7671H183.736L178.992 72.0776H155.849L151.105 84.7671H135.321L159.485 20.8179H175.894L199.967 84.7671ZM160.583 58.9764H174.345L167.423 40.2228L160.583 58.9764Z" fill="var(--fill-0, black)"/>
<path fill-rule="evenodd" clip-rule="evenodd" d="M333.396 37.524C336.697 37.5241 339.621 38.185 342.152 39.5215L342.396 39.6533L342.4 39.6557L342.403 39.6576L342.629 39.7841L342.633 39.786L342.636 39.7884C345.106 41.2055 347.027 43.2047 348.397 45.7746L348.534 46.0209C349.923 48.5787 350.606 51.6417 350.606 55.1892V84.554H336.501V57.9793C336.501 56.2993 336.184 54.8775 335.57 53.6991C334.952 52.5122 334.116 51.621 333.067 51.01C332.019 50.3997 330.762 50.0847 329.28 50.0846C327.285 50.0846 325.6 50.6272 324.201 51.6954L324.196 51.6988C322.86 52.7063 321.803 54.2661 321.049 56.4224L321.046 56.4301C320.295 58.5234 319.912 61.106 319.912 64.1891V84.554H305.716V38.244H314.514L314.791 38.2513C317.268 38.3776 319.302 40.1818 319.796 42.5526C320.452 41.8888 321.255 41.2324 322.201 40.5835L322.218 40.5719C323.635 39.6423 325.291 38.9045 327.178 38.3537C329.076 37.7995 331.15 37.524 333.396 37.524Z" fill="var(--fill-0, black)"/>
</g>
</svg>
