<svg preserveAspectRatio="xMidYMid meet" width="100%" height="100%" overflow="visible" style="display: block;" viewBox="0 0 357.558 60" fill="none" xmlns="http://www.w3.org/2000/svg">
<g id="AO_White">
<g id="Vector">
<path fill-rule="evenodd" clip-rule="evenodd" d="M124.154 21.5737C125.194 21.5738 126.145 21.6919 127.008 21.9255L127.01 21.9264C127.911 22.1611 128.706 22.4948 129.398 22.9257L129.402 22.9284L129.407 22.9309C130.094 23.3258 130.645 23.8162 131.065 24.4006L131.574 25.1102V24.2367C131.574 22.9927 132.576 21.9868 133.81 21.9868H138.613V45.774C138.613 48.283 138.09 50.382 137.061 52.0847L137.06 52.0866L137.059 52.0882C136.064 53.7902 134.603 55.0777 132.667 55.9507C130.726 56.8257 128.387 57.2685 125.643 57.2685C123.174 57.2685 121.059 56.8605 119.289 56.0545L119.287 56.0534L119.285 56.0526C117.564 55.3014 116.215 54.2866 115.229 53.0126L115.135 52.8885C114.237 51.6741 113.689 50.3783 113.483 48.9991H120.448C120.758 50.0258 121.344 50.8112 122.211 51.3344L122.213 51.3358L122.215 51.3369C123.157 51.8833 124.287 52.1497 125.592 52.1498C127.285 52.1497 128.703 51.6883 129.823 50.747C131.002 49.8205 131.574 48.4376 131.574 46.6523V42.493L131.057 43.2976C130.709 43.838 130.18 44.3265 129.454 44.7574L129.452 44.7591L129.45 44.7605C128.759 45.1903 127.948 45.5244 127.013 45.7595L127.01 45.76C126.112 45.9944 125.143 46.1126 124.103 46.1126C121.817 46.1126 119.793 45.6229 118.026 44.6506C116.259 43.6446 114.876 42.2203 113.873 40.3719C112.872 38.5262 112.366 36.3529 112.366 33.8432C112.366 31.9081 112.653 30.2043 113.22 28.7274L113.221 28.7255C113.79 27.2096 114.592 25.9363 115.623 24.8999C116.691 23.8259 117.942 23.0033 119.379 22.4319C120.814 21.8613 122.405 21.5738 124.154 21.5737ZM125.489 27.4675C124.35 27.4675 123.311 27.736 122.377 28.2762L122.203 28.3743C121.345 28.8791 120.663 29.5916 120.159 30.505L120.155 30.5121C119.652 31.4873 119.405 32.6002 119.405 33.8432C119.405 35.0862 119.652 36.1991 120.155 37.1743L120.158 37.18L120.161 37.1852C120.698 38.1215 121.433 38.8787 122.363 39.4538L122.366 39.456L122.369 39.4579C123.305 40.0009 124.348 40.2705 125.489 40.2705C126.378 40.2705 127.187 40.1096 127.911 39.7825C128.661 39.4595 129.308 39.027 129.849 38.4833C130.427 37.9024 130.859 37.2125 131.147 36.418C131.467 35.6267 131.626 34.7671 131.626 33.8432C131.626 32.5971 131.359 31.4816 130.82 30.505C130.315 29.5916 129.634 28.8791 128.776 28.3743L128.602 28.2762C127.699 27.7345 126.659 27.4675 125.489 27.4675Z" fill="var(--fill-0, white)"/>
<path fill-rule="evenodd" clip-rule="evenodd" d="M156.028 21.5737C158.118 21.5738 159.976 21.9395 161.608 22.6645L161.768 22.7373L161.771 22.7387C163.478 23.4789 164.878 24.5362 165.978 25.9102L165.98 25.9126C167.047 27.2136 167.802 28.7206 168.245 30.4374L168.287 30.6066L168.288 30.6091C168.738 32.3244 168.834 34.1857 168.571 36.1961H150.043L150.097 36.5229C150.234 37.3597 150.47 37.825 150.799 38.4862C151.367 39.6292 152.138 40.4993 153.115 41.0816L153.118 41.0838L153.122 41.0857C154.092 41.6278 155.184 41.8961 156.392 41.8961C157.306 41.8961 158.111 41.7722 158.801 41.5168L158.804 41.5157L158.808 41.5141C159.519 41.2281 160.102 40.8651 160.546 40.4187C160.959 40.0027 161.245 39.5482 161.388 39.0555H168.419C168.036 40.703 167.375 42.1532 166.438 43.4095C165.443 44.7096 164.113 45.7312 162.441 46.4711C160.773 47.209 158.76 47.583 156.392 47.5831C153.622 47.583 151.258 47.0228 149.288 45.9148C147.349 44.7704 145.846 43.2077 144.776 41.223C143.705 39.2378 143.162 37.246 143.162 34.6695C143.162 32.7384 143.482 30.984 144.117 29.403C144.715 27.9161 145.533 26.6096 146.57 25.4815L146.781 25.2582C147.952 24.0815 149.306 23.1738 150.844 22.5343C152.417 21.8952 154.143 21.5738 156.028 21.5737ZM156.028 26.6925C155.068 26.6926 154.189 26.8717 153.395 27.2346C152.634 27.5634 151.999 28.0571 151.492 28.7129C151.015 29.3294 150.64 30.0842 150.363 30.9702L150.249 31.3354H161.252L161.24 31.0427C161.203 30.1686 160.949 29.4071 160.467 28.7714C160.027 28.1111 159.424 27.5996 158.666 27.2368C157.902 26.8711 157.021 26.6926 156.028 26.6925Z" fill="var(--fill-0, white)"/>
<path d="M212.554 15.7893V21.9868H218.461V27.6224H212.554V37.8718C212.554 39.1184 212.856 40.1114 213.504 40.8016C214.15 41.4895 215.035 41.8199 216.123 41.8199C216.615 41.8199 217.092 41.7848 217.552 41.7136L217.561 41.7122L217.569 41.7106C217.906 41.6378 218.221 41.5557 218.512 41.4651V47.243C218.117 47.4063 217.612 47.5488 216.994 47.6672L216.992 47.6678C216.327 47.8014 215.61 47.8685 214.839 47.8685C212.924 47.8685 211.276 47.4971 209.885 46.7648C208.497 46.0336 207.424 44.9716 206.663 43.5736C205.902 42.176 205.516 40.5194 205.516 38.5948V27.6224H201.51V21.9868H205.516V15.7893H212.554Z" fill="var(--fill-0, white)"/>
<path fill-rule="evenodd" clip-rule="evenodd" d="M98.1237 11.9862L111.522 47.5778H103.392L100.67 40.2953H86.6188L83.8968 47.5778H76.0248L89.4734 11.9862H98.1237ZM88.9286 33.885H98.4135L93.6429 20.96L88.9286 33.885Z" fill="var(--fill-0, white)"/>
<path d="M188.897 21.5737C190.775 21.5738 192.404 21.9614 193.794 22.7268L193.924 22.7996C195.25 23.5608 196.281 24.6328 197.02 26.0214L197.022 26.025L197.024 26.0283C197.816 27.4229 198.219 29.1287 198.219 31.1575V47.4555H191.232V32.7588C191.232 31.7251 191.037 30.8175 190.636 30.0464C190.237 29.2803 189.687 28.6881 188.987 28.2804C188.286 27.8724 187.465 27.674 186.534 27.674C185.282 27.674 184.194 28.0169 183.283 28.7121C182.406 29.3739 181.745 30.3731 181.288 31.6823C180.829 32.9611 180.604 34.5105 180.604 36.3224V47.4555H173.565V21.9868H178.06C179.463 21.9868 180.604 23.1314 180.604 24.5464V25.3516L181.105 24.7216C181.492 24.2347 182.049 23.7373 182.785 23.2321C183.546 22.7333 184.444 22.3308 185.483 22.0274C186.516 21.726 187.653 21.5737 188.897 21.5737Z" fill="var(--fill-0, white)"/>
<path fill-rule="evenodd" clip-rule="evenodd" d="M251.595 11.556C262.131 11.556 269.772 19.2001 269.772 29.5668C269.772 39.9319 261.983 47.5772 251.595 47.5772C241.204 47.5772 233.27 39.9289 233.27 29.5668C233.27 19.2031 241.056 11.5561 251.595 11.556ZM251.595 17.8986C245.463 17.8987 240.881 22.8956 240.881 29.5668C240.881 36.235 245.298 41.2346 251.595 41.2347C257.738 41.2347 262.201 36.2339 262.201 29.5668C262.201 22.8995 257.731 17.8986 251.595 17.8986Z" fill="var(--fill-0, white)"/>
<path fill-rule="evenodd" clip-rule="evenodd" d="M289.165 21.5651C292.879 21.5651 295.965 22.8183 298.122 25.0553C300.28 27.293 301.534 30.5402 301.534 34.5709C301.534 38.6015 300.28 41.8487 298.122 44.0865C295.965 46.3234 292.879 47.5767 289.165 47.5767C286.195 47.5767 283.412 46.3723 282.09 44.5712L281.589 43.888V56.4614H274.539L274.486 21.9761H278.546C280.196 21.9761 281.534 23.3082 281.534 24.945V25.7699L282.033 25.113C283.424 23.2805 286.227 21.5651 289.165 21.5651ZM287.979 27.3955C286.082 27.3955 284.477 28.1163 283.348 29.3795C282.223 30.6399 281.589 32.4207 281.589 34.5169C281.589 36.6131 282.222 38.4066 283.347 39.6802C284.475 40.9566 286.08 41.6923 287.979 41.6923C289.876 41.6923 291.495 40.9717 292.637 39.7024C293.776 38.4354 294.424 36.6408 294.424 34.5169C294.424 32.3929 293.776 30.6111 292.636 29.3572C291.493 28.1012 289.875 27.3955 287.979 27.3955Z" fill="var(--fill-0, white)"/>
<path d="M330.726 21.9789V47.1685H323.677V43.7537L323.178 44.4163C322.007 45.9703 319.169 47.5728 315.382 47.5728C312.617 47.5728 310.288 46.674 308.652 45.0721C307.017 43.471 306.05 41.1449 306.05 38.2448L306.043 38.2432V21.9857H313.045V36.4194C313.045 37.9779 313.498 39.2638 314.334 40.1626C315.172 41.0635 316.368 41.5468 317.795 41.5469C319.658 41.5468 321.146 40.7491 322.157 39.2479C323.157 37.7607 323.677 35.6034 323.677 32.8899V21.9789H330.726Z" fill="var(--fill-0, white)"/>
<path d="M346.403 21.5705C349.518 21.5705 352.081 22.3637 353.942 23.7692C355.722 25.1132 356.876 27.0298 357.256 29.395H351.011C350.474 27.4644 348.581 26.3838 346.125 26.3838C344.87 26.3838 343.813 26.5525 343.058 26.8802C342.307 27.2065 341.789 27.7269 341.789 28.4466C341.789 29.0704 342.094 29.5458 342.578 29.9092C343.05 30.2642 343.705 30.5235 344.453 30.7399C345.205 30.9575 346.079 31.1393 347.001 31.3258C347.927 31.5131 348.906 31.7059 349.885 31.9469C351.846 32.43 353.767 33.0984 355.196 34.2646C356.61 35.4186 357.558 37.0729 357.558 39.581C357.558 41.8687 356.278 43.8621 354.241 45.2943C352.203 46.7272 349.426 47.5819 346.498 47.5819C342.838 47.5819 340.063 46.6361 338.171 45.0717C336.353 43.5687 335.327 41.4756 335.12 39.0369H341.368C341.779 41.2346 344.059 42.4116 346.498 42.4116C347.759 42.4116 348.905 42.1903 349.746 41.7694C350.586 41.3493 351.173 40.6989 351.173 39.8372C351.173 39.1905 350.88 38.6849 350.402 38.2886C349.934 37.9009 349.285 37.6114 348.542 37.3696C347.796 37.1266 346.93 36.9236 346.015 36.7219C345.096 36.5192 344.127 36.3173 343.157 36.0742C341.212 35.5871 339.308 34.9448 337.892 33.8479C336.493 32.7634 335.56 31.2273 335.56 28.9045C335.56 26.8924 336.61 25.068 338.495 23.7367C340.382 22.4034 342.578 21.5705 346.403 21.5705Z" fill="var(--fill-0, white)"/>
<path d="M30 0C46.5684 5.89872e-05 59.9997 13.429 59.9997 29.9943C59.9997 46.5595 46.5684 59.9885 30 59.9886C28.6185 59.9886 27.259 59.8947 25.9273 59.714V50.5229C27.2449 50.7827 28.6067 50.9191 30 50.9191C41.5587 50.9191 50.9288 41.5508 50.9288 29.9943C50.9288 18.4378 41.5587 9.06949 30 9.06943C18.4726 9.06943 9.12175 18.387 9.07116 29.9004V31.508C9.07115 37.3027 9.07093 44.4696 9.07088 50.1878V60H0V29.9943C0 13.429 13.4315 0 30 0Z" fill="var(--fill-0, white)"/>
<path d="M30 12.9612C39.4042 12.9613 47.036 20.5768 47.036 29.9809C47.036 39.3851 39.4043 47.0008 30 47.0009C28.5962 47.0009 27.2321 46.8308 25.9273 46.511V36.8148C27.1187 37.5237 28.5115 37.9315 30 37.9315C34.4036 37.9314 37.9652 34.3672 37.9652 29.9809C37.9651 25.5946 34.4036 22.0307 30 22.0306C25.6239 22.0306 22.0793 25.5502 22.0351 29.8988L22.0346 59.9886H12.9637V29.9809C12.9637 20.5767 20.5957 12.9612 30 12.9612Z" fill="var(--fill-0, white)"/>
</g>
</g>
</svg>
