<svg preserveAspectRatio="xMidYMid meet" width="100%" height="100%" overflow="visible" style="display: block;" viewBox="0 0 122.556 122.429" fill="none" xmlns="http://www.w3.org/2000/svg">
<g id="Group 1216260059">
<path id="Union" d="M61.2773 0C95.12 0 122.555 27.4348 122.556 61.2773C122.556 94.8027 95.8602 121.915 62.46 122.421V122.423H62.3721C62.0852 122.427 61.7976 122.429 61.5098 122.429C61.4913 122.427 61.4725 122.425 61.4541 122.423L15.1689 122.42V122.413C6.7779 122.332 0.000192134 115.506 0 107.096V61.2773C0.000191923 27.4349 27.4349 0.000191948 61.2773 0Z" fill="var(--fill-0, black)"/>
<g id="Vector">
<path d="M61.2779 15.8228C86.3469 15.8229 106.669 36.1417 106.669 61.2059C106.669 86.2701 86.3469 106.589 61.2779 106.589C59.1877 106.589 57.1306 106.447 55.1158 106.174V92.2669C57.1093 92.66 59.1698 92.8664 61.2779 92.8664C78.7669 92.8663 92.9444 78.6915 92.9445 61.2059C92.9445 43.7203 78.7669 29.5455 61.2779 29.5454C43.8363 29.5454 29.6879 43.6435 29.6114 61.0639V63.4963C29.6114 72.264 29.611 83.1079 29.611 91.7598V106.606H15.8862V61.2059C15.8862 36.1416 36.2089 15.8228 61.2779 15.8228Z" fill="var(--fill-0, white)"/>
<path d="M61.2779 35.4339C75.5071 35.434 87.0544 46.9567 87.0545 61.1857C87.0544 75.4148 75.5071 86.9378 61.2779 86.9379C59.1539 86.9379 57.09 86.6806 55.1158 86.1967V71.5257C56.9184 72.5983 59.0257 73.2153 61.2779 73.2153C67.9408 73.2152 73.3297 67.8224 73.3297 61.1857C73.3296 54.549 67.9408 49.1565 61.2779 49.1564C54.6566 49.1564 49.2935 54.4817 49.2266 61.0614L49.2257 106.589H35.501V61.1857C35.5011 46.9566 47.0487 35.4339 61.2779 35.4339Z" fill="var(--fill-0, white)"/>
</g>
</g>
</svg>
