<svg preserveAspectRatio="xMidYMid meet" width="100%" height="100%" overflow="visible" style="display: block;" viewBox="0 0 150 150" fill="none" xmlns="http://www.w3.org/2000/svg">
<g id="logo mark-w">
<g id="Vector">
<path d="M76.3852 24.9991C104 24.9992 126.386 47.3811 126.386 74.9904C126.386 102.6 104 124.982 76.3852 124.982C74.0828 124.982 71.8168 124.825 69.5974 124.524V109.205C71.7933 109.638 74.063 109.866 76.3852 109.866C95.65 109.866 111.267 94.2515 111.267 74.9904C111.267 55.7292 95.65 40.1152 76.3852 40.1151C57.1726 40.1151 41.5876 55.6447 41.5033 74.8339V77.5133C41.5033 87.1713 41.5029 99.1163 41.5028 108.647V125.001H26.3845V74.9904C26.3845 47.3811 48.7707 24.9991 76.3852 24.9991Z" fill="var(--fill-0, white)"/>
<path d="M76.3852 46.6015C92.0592 46.6016 104.779 59.2943 104.779 74.9681C104.779 90.642 92.0592 103.335 76.3852 103.335C74.0455 103.335 71.7721 103.052 69.5974 102.519V86.358C71.583 87.5396 73.9044 88.2192 76.3852 88.2192C83.7247 88.2191 89.6607 82.2787 89.6607 74.9681C89.6606 67.6575 83.7246 61.7175 76.3852 61.7174C69.0916 61.7174 63.1839 67.5834 63.1102 74.8312L63.1093 124.982H47.9909V74.9681C47.991 59.2942 60.7112 46.6015 76.3852 46.6015Z" fill="var(--fill-0, white)"/>
</g>
</g>
</svg>
