<svg preserveAspectRatio="xMidYMid meet" width="100%" height="100%" overflow="visible" style="display: block;" viewBox="0 0 100.609 100.61" fill="none" xmlns="http://www.w3.org/2000/svg">
<g id="Frame 2036085503">
<g id="Union">
<path fill-rule="evenodd" clip-rule="evenodd" d="M50.305 0C78.0872 0.000134646 100.609 22.5182 100.609 50.2955C100.609 78.0728 78.0871 100.59 50.305 100.591C47.9891 100.591 45.7095 100.433 43.4768 100.13L42.6874 100.024V82.9844L43.7761 83.1991C45.8876 83.6155 48.0707 83.8343 50.305 83.8343C68.8317 83.8342 83.8504 68.8182 83.8505 50.2955C83.8505 31.7727 68.8317 16.7568 50.305 16.7567C31.8283 16.7567 16.8406 31.6914 16.7595 50.145V52.7878C16.7595 62.3281 16.7591 74.1278 16.759 83.5421V100.61H0.000106812V50.2955C0.000106812 22.5181 22.5227 0 50.305 0Z" fill="var(--fill-0, black)"/>
<path fill-rule="evenodd" clip-rule="evenodd" d="M50.305 21.3394C66.2909 21.3396 79.2654 34.2852 79.2655 50.2732C79.2655 66.2614 66.291 79.2074 50.305 79.2075C47.9198 79.2075 45.6009 78.9187 43.3823 78.375L42.6874 78.2044V59.9202L44.0661 60.7407C45.8905 61.8263 48.0231 62.4512 50.305 62.4512C57.0522 62.4511 62.5066 56.9902 62.5066 50.2732C62.5064 43.5564 57.0521 38.0963 50.305 38.0961C43.603 38.0961 38.176 43.4834 38.1034 50.1383L38.1029 100.591H21.3436V50.2732C21.3437 34.2851 34.319 21.3394 50.305 21.3394Z" fill="var(--fill-0, black)"/>
</g>
</g>
</svg>
