<svg preserveAspectRatio="none" width="100%" height="100%" overflow="visible" style="display: block;" viewBox="0 0 266.009 196.62" fill="none" xmlns="http://www.w3.org/2000/svg">
<g id="OC_Black_Vertical">
<g id="Vector">
<path fill-rule="evenodd" clip-rule="evenodd" d="M133.005 0C167.179 0.000165627 194.884 27.6994 194.884 61.868C194.884 96.0365 167.179 123.735 133.005 123.735C130.156 123.735 127.352 123.542 124.605 123.169L123.634 123.038V102.078L124.974 102.342C127.571 102.855 130.256 103.124 133.005 103.124C155.794 103.124 174.269 84.6526 174.269 61.868C174.269 39.0833 155.794 20.6124 133.005 20.6122C110.277 20.6122 91.8405 38.9832 91.7408 61.6828V64.9337C91.7408 76.6692 91.7403 91.1838 91.7402 102.764V123.759H71.1252V61.868C71.1252 27.6993 98.83 0 133.005 0Z" fill="var(--fill-0, black)"/>
<path fill-rule="evenodd" clip-rule="evenodd" d="M133.005 26.2494C152.669 26.2496 168.629 42.1739 168.629 61.8406C168.629 81.5074 152.669 97.4321 133.005 97.4323C130.071 97.4323 127.218 97.0771 124.489 96.4082L123.634 96.1983V73.7072L125.33 74.7165C127.575 76.0519 130.198 76.8206 133.005 76.8206C141.304 76.8204 148.014 70.103 148.014 61.8406C148.014 53.5783 141.304 46.8618 133.005 46.8617C124.761 46.8617 118.085 53.4885 117.996 61.6746L117.995 123.735H97.3796V61.8406C97.3798 42.1738 113.34 26.2494 133.005 26.2494Z" fill="var(--fill-0, black)"/>
<path fill-rule="evenodd" clip-rule="evenodd" d="M254.898 162.175C257.941 162.175 260.493 162.95 262.369 164.367C264.17 165.727 265.334 167.669 265.716 170.041L265.814 170.65H258.872L258.765 170.266C258.342 168.745 256.83 167.793 254.635 167.793C253.472 167.793 252.688 167.913 252.069 168.182C251.426 168.461 251.092 168.804 251.046 169.248C251.053 169.626 251.231 169.928 251.584 170.193C251.954 170.471 252.501 170.696 253.194 170.897C253.884 171.096 254.692 171.265 255.57 171.442C256.444 171.619 257.386 171.804 258.328 172.036C260.207 172.499 262.125 173.156 263.575 174.339C265.038 175.534 266.009 177.253 266.009 179.791C266.009 182.102 264.753 184.085 262.827 185.506L262.638 185.642C260.607 187.07 257.863 187.908 254.989 187.908C251.428 187.908 248.665 186.987 246.752 185.406C244.909 183.881 243.875 181.76 243.668 179.319L243.62 178.749H250.557L250.637 179.178C250.959 180.899 252.787 181.951 254.989 181.951C256.133 181.951 257.133 181.749 257.836 181.397C258.542 181.044 258.9 180.571 258.9 180.034C258.9 179.605 258.715 179.265 258.358 178.969C257.991 178.664 257.45 178.414 256.766 178.192C256.085 177.97 255.285 177.782 254.417 177.591C253.553 177.4 252.621 177.206 251.69 176.972C249.832 176.507 247.935 175.877 246.501 174.766C245.051 173.642 244.084 172.034 244.084 169.659C244.084 167.549 245.19 165.669 247.091 164.326C248.981 162.991 251.174 162.175 254.898 162.175Z" fill="var(--fill-0, black)"/>
<path fill-rule="evenodd" clip-rule="evenodd" d="M240.547 187.516H232.808L232.547 187.519L232.545 187.254L232.545 185.486C231.086 186.8 228.575 187.9 225.462 187.9C222.723 187.9 220.374 187.007 218.708 185.377C217.123 183.824 216.177 181.622 216.088 178.938L216.075 178.935V162.569H223.769V176.791C223.769 176.886 223.771 176.98 223.775 177.072H223.775C223.789 177.396 223.825 177.703 223.882 177.991H223.882C223.884 178 223.886 178.01 223.888 178.019H223.888C223.894 178.047 223.9 178.075 223.906 178.103H223.905C223.907 178.108 223.908 178.114 223.909 178.119H223.91C223.917 178.151 223.924 178.18 223.931 178.209H223.93C223.933 178.22 223.936 178.231 223.939 178.242H223.939C223.945 178.266 223.951 178.288 223.957 178.31H223.956C223.962 178.33 223.967 178.35 223.973 178.37H223.974C223.979 178.389 223.981 178.396 223.985 178.41H223.984C223.989 178.426 223.994 178.443 223.999 178.459H224C224.017 178.516 224.034 178.571 224.053 178.623H224.052C224.056 178.634 224.06 178.645 224.063 178.655H224.064C224.073 178.679 224.08 178.699 224.087 178.718H224.086C224.09 178.729 224.094 178.74 224.098 178.75H224.099C224.108 178.774 224.117 178.797 224.126 178.82L224.125 178.821C224.128 178.826 224.13 178.832 224.132 178.837L224.133 178.837C224.144 178.864 224.153 178.887 224.163 178.909H224.162C224.168 178.924 224.175 178.938 224.181 178.952H224.181C224.189 178.969 224.197 178.986 224.204 179.002L224.203 179.003C224.206 179.008 224.208 179.013 224.211 179.019L224.211 179.018C224.224 179.046 224.237 179.072 224.249 179.098L224.248 179.098C224.253 179.108 224.258 179.117 224.262 179.126L224.263 179.126C224.274 179.147 224.282 179.164 224.291 179.182H224.29C224.297 179.194 224.304 179.207 224.31 179.22L224.311 179.219C224.321 179.237 224.33 179.254 224.339 179.271L224.338 179.271C224.344 179.283 224.351 179.294 224.357 179.305L224.358 179.305C224.367 179.321 224.377 179.338 224.387 179.355L224.386 179.356C224.39 179.363 224.394 179.37 224.399 179.377L224.4 179.377C224.411 179.397 224.423 179.416 224.435 179.435L224.434 179.435C224.44 179.446 224.447 179.456 224.453 179.466L224.454 179.466C224.47 179.491 224.485 179.515 224.5 179.537C224.515 179.56 224.531 179.583 224.546 179.605L224.546 179.606C224.55 179.611 224.553 179.616 224.557 179.621L224.557 179.621C224.571 179.64 224.585 179.659 224.599 179.679L224.599 179.679C224.604 179.686 224.609 179.693 224.614 179.7L224.615 179.7C224.629 179.719 224.643 179.737 224.657 179.755L224.656 179.755C224.665 179.766 224.673 179.776 224.682 179.787L224.682 179.787C224.693 179.8 224.703 179.812 224.712 179.824L224.712 179.824C224.722 179.837 224.732 179.849 224.742 179.861L224.743 179.86C224.754 179.874 224.765 179.886 224.775 179.898L224.774 179.899C224.785 179.91 224.795 179.922 224.805 179.934L224.806 179.933C224.816 179.944 224.826 179.955 224.836 179.966L224.835 179.967C224.841 179.973 224.846 179.979 224.852 179.985C224.856 179.989 224.86 179.994 224.864 179.998L224.865 179.998C224.877 180.011 224.889 180.024 224.902 180.037L224.902 180.037C224.911 180.046 224.92 180.055 224.928 180.064L224.929 180.064C224.941 180.076 224.954 180.089 224.968 180.102L224.967 180.103C224.975 180.11 224.982 180.118 224.99 180.125L224.991 180.125C225.007 180.14 225.022 180.155 225.038 180.169L225.038 180.169C225.046 180.177 225.055 180.185 225.064 180.193L225.065 180.193C225.078 180.205 225.092 180.218 225.106 180.23L225.106 180.23C225.116 180.24 225.127 180.249 225.137 180.258L225.138 180.257C225.151 180.268 225.163 180.278 225.176 180.289L225.176 180.29C225.184 180.297 225.193 180.304 225.202 180.311L225.202 180.311C225.22 180.325 225.236 180.337 225.252 180.35L225.251 180.35C225.262 180.359 225.273 180.367 225.285 180.376L225.285 180.376C225.294 180.383 225.302 180.388 225.315 180.398L225.315 180.398C225.329 180.409 225.344 180.42 225.36 180.431L225.36 180.431C225.373 180.44 225.387 180.45 225.402 180.46L225.402 180.461C225.411 180.467 225.419 180.473 225.428 180.479L225.429 180.478C225.444 180.488 225.459 180.498 225.474 180.509L225.474 180.509C225.486 180.517 225.497 180.525 225.509 180.532L225.51 180.532C225.523 180.54 225.537 180.549 225.551 180.558L225.551 180.558C225.566 180.567 225.58 180.576 225.595 180.585L225.596 180.585C225.607 180.591 225.619 180.598 225.632 180.606L225.631 180.606C225.645 180.614 225.659 180.623 225.674 180.631L225.674 180.63C225.687 180.637 225.7 180.644 225.714 180.652L225.714 180.653C225.728 180.66 225.742 180.668 225.757 180.676L225.757 180.675C225.769 180.681 225.781 180.687 225.796 180.695L225.795 180.695C225.812 180.704 225.83 180.713 225.848 180.722L225.848 180.721C225.858 180.726 225.868 180.731 225.879 180.736L225.878 180.737C225.895 180.745 225.912 180.753 225.929 180.761L225.929 180.76C225.943 180.766 225.956 180.772 225.972 180.779L225.971 180.779C225.986 180.786 226.001 180.793 226.017 180.799L226.017 180.799C226.031 180.805 226.04 180.809 226.062 180.817L226.061 180.818C226.077 180.825 226.093 180.831 226.109 180.838L226.109 180.837C226.121 180.842 226.133 180.846 226.144 180.851C226.162 180.858 226.18 180.865 226.198 180.872L226.198 180.871C226.214 180.877 226.229 180.882 226.25 180.889L226.249 180.89C226.262 180.894 226.275 180.899 226.287 180.903L226.288 180.903C226.306 180.909 226.325 180.915 226.347 180.922L226.347 180.923C226.358 180.927 226.37 180.931 226.382 180.934L226.382 180.933C226.398 180.938 226.412 180.942 226.433 180.949L226.432 180.949C226.449 180.954 226.466 180.96 226.483 180.964L226.484 180.963C226.493 180.966 226.5 180.968 226.508 180.97L226.508 180.971C226.596 180.995 226.687 181.017 226.779 181.036L226.779 181.035C226.791 181.038 226.803 181.04 226.818 181.043L226.817 181.043C226.873 181.054 226.93 181.065 226.987 181.073L226.987 181.073C227.051 181.083 227.115 181.091 227.18 181.099L227.179 181.099C227.184 181.1 227.188 181.1 227.192 181.101L227.192 181.1C227.25 181.106 227.309 181.111 227.369 181.116L227.369 181.117C227.395 181.119 227.42 181.12 227.446 181.122L227.446 181.121C227.498 181.124 227.551 181.126 227.605 181.128L227.605 181.129C227.653 181.13 227.702 181.131 227.751 181.131C227.831 181.131 227.911 181.129 227.989 181.125V181.124C228.02 181.123 228.025 181.123 228.046 181.122V181.123C228.085 181.121 228.124 181.118 228.163 181.115V181.114C228.182 181.112 228.175 181.113 228.187 181.112V181.113C228.274 181.106 228.36 181.097 228.445 181.085V181.084C228.452 181.084 228.458 181.083 228.461 181.082C228.466 181.082 228.467 181.082 228.469 181.082V181.082C228.495 181.079 228.522 181.074 228.548 181.07V181.069C228.574 181.065 228.59 181.063 228.609 181.06V181.061C228.632 181.057 228.655 181.052 228.677 181.048V181.047C228.708 181.042 228.721 181.039 228.742 181.035V181.036C228.768 181.031 228.793 181.025 228.819 181.02V181.019C228.843 181.014 228.858 181.01 228.876 181.006V181.007C228.899 181.002 228.921 180.996 228.943 180.991L228.943 180.99C228.97 180.983 228.987 180.979 229.007 180.974V180.974C229.028 180.969 229.048 180.963 229.068 180.957V180.957C229.094 180.949 229.116 180.943 229.138 180.937L229.138 180.937C229.157 180.932 229.176 180.926 229.196 180.92L229.195 180.919C229.221 180.91 229.242 180.904 229.263 180.897L229.263 180.898C229.293 180.888 229.323 180.877 229.352 180.867V180.866C229.364 180.862 229.373 180.859 229.382 180.855L229.382 180.856C229.413 180.845 229.443 180.833 229.474 180.821L229.473 180.82C229.49 180.814 229.493 180.813 229.504 180.808L229.504 180.809C229.532 180.798 229.559 180.786 229.586 180.774V180.774C229.607 180.765 229.613 180.763 229.626 180.757V180.757C229.651 180.746 229.675 180.735 229.699 180.724L229.699 180.723C229.715 180.716 229.731 180.708 229.747 180.7L229.747 180.701C229.771 180.69 229.794 180.678 229.817 180.667L229.817 180.666C229.832 180.659 229.845 180.652 229.858 180.645L229.858 180.646C229.888 180.63 229.918 180.614 229.948 180.597L229.948 180.597C229.965 180.587 229.957 180.591 229.967 180.586L229.968 180.586C229.994 180.571 230.021 180.555 230.048 180.54L230.047 180.539C230.063 180.53 230.074 180.523 230.086 180.516L230.087 180.516C230.107 180.504 230.128 180.491 230.148 180.478L230.148 180.477C230.166 180.466 230.18 180.457 230.195 180.447L230.196 180.448C230.219 180.433 230.241 180.417 230.264 180.402L230.263 180.401C230.276 180.393 230.288 180.384 230.301 180.375L230.302 180.376C230.323 180.361 230.345 180.345 230.367 180.329L230.366 180.328C230.383 180.316 230.395 180.307 230.408 180.298L230.409 180.298C230.43 180.283 230.45 180.267 230.471 180.251L230.47 180.25C230.49 180.235 230.5 180.227 230.513 180.216L230.514 180.217C230.533 180.201 230.552 180.186 230.572 180.17L230.571 180.169C230.588 180.154 230.6 180.145 230.613 180.134L230.614 180.134C230.635 180.116 230.656 180.097 230.678 180.079L230.677 180.078C230.688 180.068 230.698 180.06 230.708 180.051L230.708 180.051C230.729 180.032 230.75 180.012 230.771 179.993L230.771 179.992C230.785 179.978 230.798 179.966 230.81 179.954L230.811 179.955C230.829 179.937 230.846 179.92 230.864 179.902C230.877 179.889 230.89 179.875 230.903 179.862L230.903 179.863C230.925 179.841 230.946 179.818 230.967 179.796L230.967 179.795C230.976 179.786 230.981 179.78 230.994 179.766L230.994 179.766C231.014 179.745 231.033 179.724 231.053 179.702L231.052 179.701C231.065 179.687 231.075 179.675 231.086 179.663L231.086 179.663C231.106 179.641 231.125 179.618 231.144 179.596L231.143 179.595C231.154 179.582 231.164 179.57 231.174 179.558L231.175 179.558C231.193 179.536 231.211 179.514 231.228 179.491L231.227 179.491C231.241 179.474 231.252 179.46 231.263 179.445L231.264 179.445C231.281 179.424 231.297 179.402 231.313 179.381L231.312 179.38C231.324 179.364 231.336 179.348 231.348 179.331L231.349 179.332C231.366 179.308 231.383 179.284 231.4 179.26L231.399 179.26C231.409 179.245 231.42 179.23 231.431 179.214L231.432 179.214C231.439 179.203 231.447 179.192 231.455 179.181C231.461 179.171 231.468 179.161 231.474 179.151L231.473 179.15C231.49 179.125 231.505 179.102 231.52 179.079L231.521 179.08C231.531 179.064 231.541 179.048 231.551 179.032L231.55 179.032C231.564 179.009 231.578 178.987 231.592 178.964L231.593 178.964C231.607 178.94 231.622 178.916 231.636 178.892L231.635 178.891C231.644 178.877 231.651 178.865 231.662 178.846L231.662 178.846C231.678 178.819 231.694 178.792 231.709 178.764L231.708 178.764C231.717 178.748 231.725 178.733 231.733 178.718L231.734 178.718C231.75 178.689 231.766 178.659 231.782 178.629L231.781 178.628C231.792 178.608 231.802 178.589 231.812 178.569L231.812 178.57C231.826 178.544 231.839 178.518 231.851 178.492L231.851 178.492C231.859 178.475 231.866 178.46 231.876 178.44L231.877 178.44C231.89 178.412 231.903 178.384 231.917 178.356L231.916 178.356C231.928 178.331 231.939 178.306 231.95 178.281L231.951 178.281C231.961 178.26 231.97 178.239 231.979 178.217L231.979 178.217C231.993 178.184 232.007 178.151 232.022 178.118L232.022 178.118C232.03 178.099 232.038 178.081 232.045 178.062L232.045 178.062C232.054 178.04 232.061 178.022 232.072 177.995L232.073 177.995C232.084 177.967 232.095 177.94 232.106 177.911L232.105 177.911C232.115 177.886 232.124 177.861 232.134 177.836L232.134 177.836C232.144 177.811 232.153 177.785 232.163 177.76L232.162 177.76C232.171 177.735 232.179 177.71 232.189 177.683H232.19C232.2 177.653 232.211 177.622 232.221 177.591H232.221C232.229 177.566 232.238 177.54 232.247 177.513L232.248 177.513C232.256 177.489 232.263 177.465 232.271 177.441L232.27 177.441C232.279 177.413 232.288 177.384 232.297 177.354L232.298 177.355C232.63 176.273 232.808 174.965 232.808 173.441V162.562H240.547V187.516Z" fill="var(--fill-0, black)"/>
<path fill-rule="evenodd" clip-rule="evenodd" d="M164.932 152.636C175.217 152.636 182.706 160.122 182.706 170.252C182.706 180.384 175.074 187.868 164.932 187.868C154.794 187.868 147.018 180.387 147.018 170.252C147.018 160.119 154.651 152.636 164.932 152.636ZM164.932 159.705C159.445 159.705 155.291 164.169 155.291 170.252C155.291 176.339 159.293 180.799 164.932 180.799C170.423 180.799 174.471 176.34 174.471 170.252C174.471 164.165 170.416 159.705 164.932 159.705Z" fill="var(--fill-0, black)"/>
<path fill-rule="evenodd" clip-rule="evenodd" d="M200.584 162.165C204.23 162.165 207.302 163.398 209.462 165.637C211.621 167.876 212.846 171.097 212.846 175.032C212.846 178.966 211.621 182.187 209.462 184.426C207.302 186.665 204.23 187.898 200.584 187.898C197.956 187.898 195.413 186.946 193.92 185.392V196.329H186.181L186.129 162.555H190.507C192.138 162.555 193.501 163.713 193.805 165.25C193.805 165.25 196.289 162.276 200.584 162.165ZM199.458 168.748C197.799 168.748 196.421 169.375 195.456 170.455C194.489 171.538 193.92 173.096 193.92 174.98C193.92 176.865 194.489 178.436 195.457 179.532C196.423 180.626 197.8 181.264 199.458 181.264C201.119 181.264 202.51 180.637 203.488 179.55C204.467 178.46 205.049 176.89 205.049 174.98C205.049 173.071 204.467 171.514 203.488 170.438C202.511 169.363 201.12 168.748 199.458 168.748Z" fill="var(--fill-0, black)"/>
<path fill-rule="evenodd" clip-rule="evenodd" d="M45.4672 162.422C46.4096 162.422 47.2856 162.523 48.0931 162.725L48.2539 162.767L48.2683 162.771L48.2706 162.772C49.0884 162.987 49.8263 163.288 50.4815 163.677L50.6126 163.756L50.619 163.76L50.62 163.761C51.1209 164.051 51.5554 164.394 51.9217 164.792C52.1984 163.653 53.2195 162.806 54.4394 162.806H59.4173V185.425C59.4172 187.827 58.9169 189.875 57.9017 191.555L57.8981 191.561L57.895 191.565C56.9123 193.239 55.4735 194.501 53.5891 195.35C51.7035 196.2 49.4546 196.62 46.8512 196.62C44.5016 196.62 42.4596 196.232 40.7332 195.446L40.7291 195.444C39.0665 194.717 37.7423 193.726 36.7672 192.466L36.7641 192.462L36.6766 192.347L36.6746 192.344L36.6728 192.341C35.7924 191.15 35.2472 189.868 35.0431 188.497L34.9551 187.906H42.4065L42.5168 188.273C42.7706 189.115 43.2407 189.735 43.9278 190.15C44.7077 190.602 45.6626 190.834 46.8035 190.834C48.2789 190.834 49.4724 190.434 50.4038 189.651L50.4105 189.646L50.4169 189.64C51.3298 188.923 51.8165 187.852 51.846 186.384L51.8473 186.24V183.992C51.5263 184.33 51.1333 184.636 50.6718 184.912L50.659 184.921L50.6475 184.928C49.9571 185.355 49.1569 185.681 48.2511 185.909C48.2505 185.91 48.25 185.91 48.2493 185.91L48.2426 185.912L48.2355 185.914H48.2347C47.3575 186.141 46.4186 186.254 45.4195 186.254C43.2196 186.254 41.2522 185.782 39.5247 184.832L39.5213 184.83L39.518 184.828C37.7902 183.844 36.4373 182.449 35.4614 180.65C34.4835 178.847 33.9989 176.74 33.9989 174.338C33.9989 172.499 34.2703 170.859 34.8186 169.422L34.8191 169.421L34.8263 169.402L34.8271 169.4C35.3793 167.931 36.1615 166.684 37.175 165.665L37.3725 165.471C38.3713 164.517 39.528 163.778 40.8402 163.256C42.2414 162.699 43.7849 162.422 45.4672 162.422ZM46.7083 168.929C45.7345 168.929 44.8579 169.157 44.0735 169.611L44.0711 169.612L44.0688 169.614L43.9134 169.701C43.2014 170.121 42.6322 170.713 42.2057 171.485C41.7838 172.307 41.5691 173.256 41.5691 174.338C41.5691 175.421 41.7837 176.369 42.2055 177.19C42.6603 177.982 43.2802 178.622 44.0686 179.111C44.8543 179.566 45.7324 179.796 46.7083 179.796C47.4707 179.796 48.149 179.658 48.7472 179.388L48.9408 179.3C49.5017 179.035 49.9858 178.697 50.3941 178.287C50.8019 177.877 51.1239 177.401 51.3602 176.858L51.3585 176.856L51.4875 176.537C51.7579 175.869 51.895 175.137 51.895 174.338C51.895 173.256 51.6642 172.307 51.2105 171.485C50.7839 170.713 50.2146 170.121 49.5025 169.701L49.3417 169.61L49.3355 169.607C48.5868 169.157 47.7139 168.929 46.7083 168.929ZM54.3327 163.324C54.3234 163.324 54.314 163.325 54.3047 163.326C54.3225 163.324 54.3404 163.324 54.3583 163.323L54.3327 163.324Z" fill="var(--fill-0, black)"/>
<path fill-rule="evenodd" clip-rule="evenodd" d="M128.125 162.806H133.613V169.073H128.125V178.082C128.125 179.164 128.387 179.939 128.868 180.452L128.96 180.545C129.436 180.999 130.082 181.235 130.926 181.235C131.357 181.235 131.771 181.204 132.169 181.143C132.466 181.079 132.741 181.007 132.993 180.929L133.661 180.721V187.134L133.343 187.265C132.934 187.434 132.43 187.574 131.836 187.688L131.833 187.689C131.179 187.821 130.478 187.886 129.733 187.886C127.886 187.886 126.269 187.527 124.89 186.801C123.509 186.073 122.439 185.013 121.684 183.626C120.928 182.239 120.555 180.611 120.555 178.754V169.073H116.833V162.806H120.555V157.047H128.125V162.806Z" fill="var(--fill-0, black)"/>
<path fill-rule="evenodd" clip-rule="evenodd" d="M75.0853 162.422C77.025 162.422 78.7746 162.751 80.3292 163.415L80.479 163.48L80.481 163.481L80.4831 163.482L80.6267 163.548L80.7814 163.616C82.3693 164.331 83.6875 165.34 84.7305 166.642C85.7394 167.872 86.4606 169.289 86.8945 170.889L86.9355 171.045L86.9365 171.049L86.975 171.202L87.015 171.359C87.418 172.981 87.4952 174.726 87.251 176.591L87.1923 177.039H70.1389C70.2557 177.558 70.4296 177.905 70.6871 178.423C71.1771 179.409 71.8292 180.137 72.6394 180.621C73.4559 181.076 74.3817 181.306 75.4228 181.306C76.228 181.306 76.9131 181.197 77.4827 180.986C78.0919 180.74 78.5674 180.438 78.918 180.085C79.2531 179.748 79.4664 179.398 79.5715 179.038L79.6795 178.667H87.2474L87.1007 179.298C86.7296 180.893 86.0867 182.307 85.1706 183.535L85.1688 183.538L85.167 183.54C84.1843 184.824 82.8765 185.824 81.2523 186.543C79.6215 187.264 77.6755 187.62 75.4228 187.62C72.7798 187.62 70.492 187.085 68.5698 186.004L68.5649 186.001L68.5605 185.999C66.6778 184.888 65.2152 183.367 64.1761 181.44C63.1408 179.52 62.6149 177.585 62.6149 175.106C62.6149 173.254 62.9221 171.558 63.54 170.02C64.1176 168.583 64.9101 167.316 65.9179 166.22L65.92 166.218L65.9223 166.215L66.1175 166.008L66.1224 166.003L66.1275 165.998C67.2635 164.856 68.5786 163.974 70.0707 163.354L70.0725 163.354L70.0746 163.353C71.6031 162.732 73.2745 162.422 75.0853 162.422ZM75.0853 168.209C74.2586 168.209 73.5155 168.363 72.8523 168.666L72.8472 168.668L72.8426 168.67C72.2161 168.941 71.6951 169.346 71.277 169.886C70.9363 170.327 70.6513 170.861 70.4237 171.493H79.3938C79.329 170.888 79.1292 170.371 78.7997 169.936L78.7903 169.924L78.7815 169.911C78.4274 169.38 77.9407 168.964 77.3142 168.664C76.6865 168.363 75.9456 168.209 75.0853 168.209Z" fill="var(--fill-0, black)"/>
<path fill-rule="evenodd" clip-rule="evenodd" d="M34.4734 187.616H25.818L23.2885 180.849H10.9466L8.41688 187.616H0L12.8859 153.514H21.6362L34.4734 187.616ZM13.4715 173.862H20.8101L17.1187 163.861L13.4715 173.862Z" fill="var(--fill-0, black)"/>
<path fill-rule="evenodd" clip-rule="evenodd" d="M105.627 162.422C107.387 162.422 108.946 162.775 110.296 163.488L110.426 163.558L110.428 163.559L110.43 163.56L110.551 163.628L110.553 163.629L110.554 163.63C111.871 164.386 112.896 165.452 113.626 166.822L113.699 166.953C114.44 168.317 114.805 169.951 114.805 171.843V187.502H107.283V173.33C107.283 172.435 107.114 171.676 106.786 171.048C106.457 170.415 106.011 169.94 105.452 169.614C104.893 169.288 104.222 169.121 103.432 169.12C102.368 169.12 101.469 169.41 100.723 169.979L100.721 169.981C100.009 170.519 99.4448 171.35 99.0427 172.5L99.0412 172.504C98.6404 173.621 98.4362 174.998 98.4361 176.642V187.502H90.8659V162.806H95.5576L95.7056 162.81C97.0265 162.878 98.1112 163.84 98.3746 165.104C98.7242 164.75 99.1526 164.4 99.6568 164.054L99.666 164.048C100.422 163.552 101.305 163.159 102.311 162.865C103.323 162.569 104.429 162.422 105.627 162.422Z" fill="var(--fill-0, black)"/>
</g>
</g>
</svg>
