<svg preserveAspectRatio="xMidYMid meet" width="100%" height="100%" overflow="visible" style="display: block;" viewBox="0 0 270.887 196.62" fill="none" xmlns="http://www.w3.org/2000/svg">
<g id="OC_White_Vertical">
<g id="Vector">
<path d="M135.444 0C169.619 0.00012167 197.323 27.6993 197.323 61.8677C197.323 96.036 169.619 123.735 135.444 123.735C132.594 123.735 129.79 123.542 127.043 123.169V104.211C129.761 104.747 132.57 105.028 135.444 105.028C159.285 105.028 178.613 85.7047 178.613 61.8677C178.613 38.0307 159.285 18.7072 135.444 18.7071C111.667 18.7071 92.3795 37.926 92.2751 61.6741V64.99C92.2751 76.9424 92.2746 91.7253 92.2745 103.52V123.759H73.5645V61.8677C73.5645 27.6993 101.269 0 135.444 0Z" fill="var(--fill-0, white)"/>
<path d="M135.444 26.7344C154.842 26.7345 170.583 42.4427 170.583 61.8401C170.583 81.2377 154.842 96.9462 135.444 96.9464C132.548 96.9464 129.735 96.5956 127.043 95.936V75.936C129.501 77.3982 132.374 78.2393 135.444 78.2393C144.527 78.2392 151.873 70.8876 151.873 61.8401C151.873 52.7927 144.527 45.4416 135.444 45.4415C126.418 45.4415 119.106 52.701 119.015 61.6707L119.014 123.735H100.304V61.8401C100.304 42.4426 116.046 26.7344 135.444 26.7344Z" fill="var(--fill-0, white)"/>
</g>
<g id="Vector_2">
<path fill-rule="evenodd" clip-rule="evenodd" d="M46.3092 162.275C47.31 162.275 48.225 162.389 49.0553 162.613L49.0577 162.614C49.9241 162.84 50.6893 163.161 51.3552 163.576L51.3591 163.578L51.3634 163.581C52.0245 163.961 52.5547 164.433 52.9585 164.995L53.4489 165.678V164.837C53.4489 163.64 54.4132 162.672 55.5997 162.672H60.2211V185.56C60.2211 187.974 59.7187 189.994 58.7285 191.632L58.7274 191.634L58.7264 191.636C57.7685 193.273 56.3633 194.512 54.5 195.352C52.6324 196.194 50.3825 196.62 47.7424 196.62C45.3667 196.62 43.3311 196.227 41.6281 195.452L41.6262 195.451L41.6241 195.45C39.9681 194.727 38.6707 193.751 37.722 192.525L37.6313 192.406C36.7675 191.237 36.2398 189.99 36.0423 188.663H42.7437C43.0413 189.651 43.6056 190.407 44.44 190.91L44.4421 190.912L44.444 190.913C45.3503 191.438 46.4374 191.695 47.693 191.695C49.3221 191.695 50.6864 191.251 51.7639 190.345C52.8986 189.454 53.4488 188.123 53.4489 186.405V182.403L52.9508 183.177C52.6163 183.697 52.1071 184.167 51.4093 184.582L51.4069 184.584L51.4046 184.585C50.7402 184.998 49.9597 185.32 49.0601 185.546L49.0577 185.547C48.1928 185.772 47.2605 185.886 46.2598 185.886C44.0602 185.886 42.1135 185.415 40.4126 184.479C38.7128 183.511 37.3816 182.141 36.4169 180.362C35.4537 178.586 34.9672 176.495 34.9671 174.08C34.9671 172.218 35.2432 170.579 35.7891 169.158L35.7897 169.156C36.3376 167.698 37.109 166.473 38.1006 165.475C39.1282 164.442 40.332 163.65 41.7148 163.101C43.0958 162.552 44.6262 162.275 46.3092 162.275ZM47.5941 167.946C46.4982 167.946 45.4978 168.204 44.5991 168.724L44.4318 168.818C43.6066 169.304 42.9507 169.99 42.4652 170.868L42.4615 170.875C41.9777 171.814 41.7396 172.884 41.7396 174.08C41.7396 175.276 41.9777 176.347 42.4615 177.286L42.4641 177.291L42.4673 177.296C42.9841 178.197 43.6915 178.926 44.5856 179.479L44.5888 179.481L44.5922 179.483C45.4927 180.005 46.4955 180.265 47.5941 180.265C48.4489 180.265 49.2274 180.11 49.9246 179.795C50.6457 179.484 51.2685 179.068 51.7888 178.545C52.3446 177.986 52.761 177.322 53.0375 176.558C53.3456 175.797 53.4983 174.969 53.4983 174.08C53.4983 172.881 53.2421 171.808 52.7231 170.868C52.2376 169.99 51.5816 169.304 50.7564 168.818L50.5892 168.724C49.7206 168.203 48.7194 167.946 47.5941 167.946Z" fill="var(--fill-0, white)"/>
<path fill-rule="evenodd" clip-rule="evenodd" d="M76.9783 162.275C78.9889 162.275 80.7767 162.627 82.3469 163.324L82.5009 163.395L82.5041 163.396C84.1459 164.108 85.4932 165.125 86.5513 166.447L86.5534 166.45C87.5802 167.702 88.3072 169.152 88.7328 170.803L88.7734 170.966L88.7742 170.969C89.2077 172.619 89.3002 174.41 89.0469 176.344H71.2191L71.2709 176.659C71.4035 177.464 71.6301 177.912 71.9464 178.548C72.4932 179.648 73.235 180.485 74.1751 181.045L74.1783 181.047L74.1818 181.049C75.1154 181.571 76.1664 181.829 77.3279 181.829C78.2079 181.829 78.9826 181.71 79.6458 181.464L79.6492 181.463L79.6526 181.461C80.3367 181.186 80.8978 180.837 81.3249 180.407C81.7229 180.007 81.9974 179.57 82.1356 179.096H88.9006C88.5318 180.681 87.8957 182.076 86.9942 183.285C86.0366 184.536 84.7574 185.519 83.1484 186.231C81.5439 186.941 79.6064 187.301 77.3279 187.301C74.6633 187.301 72.3883 186.762 70.4928 185.696C68.627 184.595 67.181 183.091 66.151 181.181C65.1209 179.271 64.5983 177.355 64.5983 174.876C64.5983 173.017 64.9063 171.329 65.5178 169.808C66.093 168.377 66.8797 167.12 67.878 166.035L68.0803 165.82C69.207 164.688 70.5099 163.815 71.9904 163.199C73.5032 162.584 75.1648 162.275 76.9783 162.275ZM76.9783 167.2C76.0545 167.2 75.2083 167.373 74.4443 167.722C73.7128 168.038 73.1012 168.513 72.6132 169.144C72.1544 169.737 71.7942 170.464 71.5275 171.316L71.4176 171.668H82.0044L81.9925 171.386C81.9577 170.545 81.7127 169.812 81.2493 169.2C80.8256 168.565 80.2454 168.073 79.5165 167.724C78.7816 167.372 77.933 167.2 76.9783 167.2Z" fill="var(--fill-0, white)"/>
<path d="M131.367 156.709V162.672H137.05V168.095H131.367V177.957C131.367 179.156 131.657 180.112 132.28 180.776C132.902 181.438 133.754 181.756 134.8 181.756C135.274 181.756 135.733 181.722 136.176 181.653L136.184 181.652L136.191 181.65C136.517 181.58 136.819 181.501 137.099 181.414V186.974C136.719 187.131 136.234 187.268 135.639 187.382L135.636 187.382C134.997 187.511 134.307 187.575 133.565 187.575C131.722 187.575 130.136 187.218 128.799 186.513C127.463 185.81 126.431 184.788 125.698 183.443C124.966 182.098 124.594 180.504 124.594 178.652V168.095H120.74V162.672H124.594V156.709H131.367Z" fill="var(--fill-0, white)"/>
<path fill-rule="evenodd" clip-rule="evenodd" d="M21.2633 153.05L34.1548 187.296H26.3326L23.7135 180.289H10.1934L7.5744 187.296H0L12.9401 153.05H21.2633ZM12.4159 174.121H21.5421L16.9519 161.684L12.4159 174.121Z" fill="var(--fill-0, white)"/>
<path d="M108.604 162.275C110.411 162.275 111.979 162.648 113.316 163.384L113.441 163.454C114.717 164.187 115.709 165.218 116.42 166.554L116.422 166.558L116.423 166.561C117.186 167.903 117.574 169.544 117.574 171.496V187.178H110.851V173.037C110.851 172.042 110.663 171.169 110.277 170.427C109.893 169.69 109.364 169.12 108.691 168.728C108.016 168.335 107.226 168.145 106.331 168.145C105.126 168.145 104.078 168.474 103.203 169.143C102.358 169.78 101.723 170.742 101.283 172.001C100.841 173.232 100.624 174.722 100.624 176.466V187.178H93.8519V162.672H98.1768C99.527 162.672 100.624 163.774 100.624 165.135V165.91L101.107 165.304C101.479 164.835 102.015 164.357 102.723 163.871C103.455 163.391 104.32 163.003 105.319 162.711C106.313 162.421 107.407 162.275 108.604 162.275Z" fill="var(--fill-0, white)"/>
<path fill-rule="evenodd" clip-rule="evenodd" d="M168.931 152.636C179.069 152.636 186.421 159.991 186.421 169.966C186.421 179.939 178.927 187.295 168.931 187.295C158.933 187.295 151.299 179.936 151.299 169.966C151.299 159.994 158.791 152.636 168.931 152.636ZM168.931 158.739C163.031 158.739 158.622 163.547 158.622 169.966C158.622 176.382 162.872 181.192 168.931 181.192C174.842 181.192 179.136 176.381 179.136 169.966C179.136 163.551 174.835 158.739 168.931 158.739Z" fill="var(--fill-0, white)"/>
<path fill-rule="evenodd" clip-rule="evenodd" d="M205.081 162.267C208.654 162.267 211.623 163.472 213.699 165.625C215.776 167.778 216.982 170.902 216.982 174.781C216.982 178.659 215.776 181.783 213.699 183.936C211.623 186.089 208.654 187.295 205.081 187.295C202.223 187.295 199.545 186.136 198.273 184.403L197.791 183.745V195.843H191.008L190.957 162.662H194.863C196.451 162.662 197.739 163.944 197.739 165.519V166.312L198.218 165.68C199.557 163.917 202.253 162.267 205.081 162.267ZM203.94 167.877C202.114 167.877 200.57 168.57 199.484 169.786C198.401 170.998 197.791 172.712 197.791 174.729C197.791 176.746 198.401 178.471 199.483 179.697C200.568 180.925 202.112 181.633 203.94 181.633C205.765 181.633 207.322 180.939 208.421 179.718C209.517 178.499 210.141 176.772 210.141 174.729C210.141 172.685 209.517 170.971 208.42 169.764C207.321 168.556 205.763 167.877 203.94 167.877Z" fill="var(--fill-0, white)"/>
<path d="M245.07 162.665V186.902H238.288V183.616L237.807 184.254C236.681 185.749 233.95 187.291 230.307 187.291C227.646 187.291 225.405 186.426 223.831 184.885C222.257 183.344 221.327 181.106 221.327 178.316L221.321 178.314V162.671H228.057V176.559C228.057 178.059 228.493 179.296 229.298 180.161C230.104 181.028 231.255 181.493 232.628 181.493C234.421 181.493 235.853 180.725 236.825 179.281C237.788 177.85 238.288 175.774 238.288 173.163V162.665H245.07Z" fill="var(--fill-0, white)"/>
<path d="M260.154 162.272C263.152 162.272 265.618 163.035 267.409 164.387C269.121 165.681 270.231 167.525 270.597 169.8H264.588C264.071 167.943 262.25 166.903 259.887 166.903C258.679 166.903 257.662 167.065 256.936 167.381C256.213 167.695 255.715 168.195 255.715 168.888C255.715 169.488 256.008 169.946 256.473 170.295C256.928 170.637 257.559 170.886 258.278 171.095C259.002 171.304 259.842 171.479 260.73 171.658C261.621 171.838 262.563 172.024 263.504 172.256C265.392 172.721 267.24 173.364 268.615 174.486C269.975 175.596 270.887 177.188 270.887 179.601C270.887 181.803 269.656 183.72 267.696 185.099C265.735 186.477 263.063 187.3 260.246 187.3C256.724 187.3 254.054 186.39 252.234 184.884C250.485 183.438 249.497 181.424 249.298 179.078H255.309C255.705 181.192 257.899 182.325 260.246 182.325C261.459 182.325 262.561 182.112 263.371 181.707C264.179 181.303 264.744 180.677 264.744 179.848C264.744 179.226 264.462 178.739 264.002 178.358C263.552 177.985 262.927 177.706 262.212 177.473C261.495 177.24 260.661 177.044 259.781 176.85C258.897 176.655 257.965 176.461 257.031 176.227C255.159 175.758 253.327 175.14 251.965 174.085C250.619 173.041 249.722 171.564 249.722 169.329C249.722 167.392 250.732 165.637 252.545 164.356C254.361 163.073 256.473 162.272 260.154 162.272Z" fill="var(--fill-0, white)"/>
</g>
</g>
</svg>
